{
.appVersion = "3260";
.formatVersion = 3;
DisplayStrings = (
HelloHELLO,
"Zero Handles:
z

Angled Handles:
&

Almost Orthogonal Lines:
z

Bad Outline Order:
ABDOPQRabdegijopq0689*:!#?\";“”$=%+@&

Bad Path Orientation:
ABCDEFGHIJKLMNOPQRSTUVWXYZabcdefghijklmnopqrstuvwxyz0123456789*/backslash :,!#.?\"';//_{}[]()-“”‘’$~=><%+|@&^`

"
);
customParameters = (
{
name = panose;
value = (
0,
0,
5,
0,
0,
0,
0,
0,
0,
0
);
},
{
name = unicodeRanges;
value = (
0
);
},
{
name = codePageRanges;
value = (
"1252"
);
},
{
name = blueScale;
value = 0.037;
},
{
name = glyphOrder;
value = (
.notdef,
A,
B,
C,
D,
E,
F,
G,
H,
I,
J,
K,
L,
M,
N,
O,
P,
Q,
R,
S,
T,
U,
V,
W,
X,
Y,
Z,
a,
b,
c,
d,
e,
f,
g,
h,
i,
j,
k,
l,
m,
n,
o,
p,
q,
r,
s,
t,
u,
v,
w,
x,
y,
z,
zero,
one,
two,
three,
four,
five,
six,
seven,
eight,
nine,
asterisk,
backslash,
colon,
comma,
exclam,
numbersign,
period,
question,
quotedbl,
quotesingle,
semicolon,
slash,
underscore,
braceleft,
braceright,
bracketleft,
bracketright,
parenleft,
parenright,
hyphen,
quotedblleft,
quotedblright,
quoteleft,
quoteright,
quotesinglbase,
space,
CR,
.null,
dollar,
asciitilde,
equal,
greater,
less,
percent,
plus,
bar,
at,
ampersand,
asciicircum,
grave
);
}
);
date = "2017-03-01 08:49:34 +0000";
familyName = dop;
fontMaster = (
{
customParameters = (
{
name = typoAscender;
value = 750;
},
{
name = typoDescender;
value = -170;
},
{
name = typoLineGap;
value = 280;
},
{
name = winAscent;
value = 1030;
},
{
name = winDescent;
value = 170;
},
{
name = hheaAscender;
value = 1030;
},
{
name = hheaDescender;
value = -170;
},
{
name = strikeoutPosition;
value = 300;
},
{
name = strikeoutSize;
value = 50;
},
{
name = underlinePosition;
value = -75;
}
);
id = m01;
metricValues = (
{
pos = 750;
},
{
pos = 700;
},
{
pos = 500;
},
{
},
{
pos = -170;
},
{
}
);
name = Medium;
}
);
glyphs = (
{
glyphname = A;
lastChange = "2024-06-06 21:54:33 +0000";
layers = (
{
layerId = m01;
shapes = (
{
closed = 1;
nodes = (
(306,0,l),
(306,262,l),
(386,262,l),
(386,0,l),
(628,0,l),
(628,503,ls),
(628,564,o),
(603,619,o),
(563,659,cs),
(523,699,o),
(467,724,o),
(406,724,cs),
(286,724,ls),
(225,724,o),
(169,699,o),
(129,659,cs),
(89,619,o),
(64,564,o),
(64,503,cs),
(64,0,l)
);
},
{
closed = 1;
nodes = (
(306,583,ls),
(306,606,o),
(323,623,o),
(346,623,cs),
(369,623,o),
(386,606,o),
(386,583,cs),
(386,342,l),
(306,342,l)
);
}
);
width = 683;
}
);
note = A;
unicode = 65;
},
{
glyphname = B;
lastChange = "2024-06-06 21:54:33 +0000";
layers = (
{
layerId = m01;
shapes = (
{
closed = 1;
nodes = (
(443,0,ls),
(494,0,o),
(538,20,o),
(571,53,cs),
(604,86,o),
(624,132,o),
(624,181,cs),
(624,261,ls),
(624,325,o),
(592,379,o),
(544,412,c),
(544,563,ls),
(544,607,o),
(525,648,o),
(497,677,cs),
(468,706,o),
(427,724,o),
(383,724,cs),
(60,724,l),
(60,0,l)
);
},
{
closed = 1;
nodes = (
(319,120,o),
(302,138,o),
(302,161,cs),
(302,342,l),
(383,342,l),
(383,161,ls),
(383,138,o),
(365,120,o),
(342,120,cs)
);
},
{
closed = 1;
nodes = (
(302,563,ls),
(302,586,o),
(319,603,o),
(342,603,cs),
(365,603,o),
(383,586,o),
(383,563,cs),
(383,422,l),
(302,422,l)
);
}
);
width = 675;
}
);
note = B;
unicode = 66;
},
{
glyphname = C;
lastChange = "2024-06-06 21:54:33 +0000";
layers = (
{
layerId = m01;
shapes = (
{
closed = 1;
nodes = (
(500,0,ls),
(533,0,o),
(564,14,o),
(586,36,cs),
(608,58,o),
(621,87,o),
(621,120,cs),
(621,161,ls),
(621,194,o),
(608,224,o),
(586,246,cs),
(564,268,o),
(533,281,o),
(500,281,cs),
(319,281,l),
(319,563,l),
(540,563,ls),
(585,563,o),
(621,599,o),
(621,643,cs),
(621,688,o),
(585,724,o),
(540,724,cs),
(57,724,l),
(57,321,ls),
(57,233,o),
(94,153,o),
(152,95,cs),
(210,37,o),
(290,0,o),
(379,0,cs)
);
}
);
width = 675;
}
);
note = C;
unicode = 67;
},
{
glyphname = D;
lastChange = "2024-06-06 21:54:33 +0000";
layers = (
{
layerId = m01;
shapes = (
{
closed = 1;
nodes = (
(417,0,ls),
(476,0,o),
(529,24,o),
(567,62,cs),
(605,100,o),
(628,152,o),
(628,211,cs),
(628,512,ls),
(628,571,o),
(605,623,o),
(567,662,cs),
(529,701,o),
(476,724,o),
(417,724,cs),
(64,724,l),
(64,0,l)
);
},
{
closed = 1;
nodes = (
(286,583,ls),
(286,606,o),
(303,623,o),
(326,623,cs),
(349,623,o),
(366,606,o),
(366,583,cs),
(366,140,l),
(286,140,l)
);
}
);
width = 683;
}
);
note = D;
unicode = 68;
},
{
glyphname = E;
lastChange = "2024-06-06 21:54:33 +0000";
layers = (
{
layerId = m01;
shapes = (
{
closed = 1;
nodes = (
(559,0,ls),
(590,0,o),
(617,12,o),
(637,32,cs),
(657,52,o),
(670,79,o),
(670,110,cs),
(670,141,o),
(657,168,o),
(637,188,cs),
(617,208,o),
(590,221,o),
(559,221,cs),
(328,221,ls),
(305,221,o),
(287,238,o),
(287,261,cs),
(287,284,o),
(305,301,o),
(328,301,cs),
(489,301,ls),
(522,301,o),
(549,327,o),
(549,362,cs),
(549,395,o),
(522,422,o),
(489,422,cs),
(328,422,ls),
(305,422,o),
(287,439,o),
(287,462,cs),
(287,485,o),
(305,502,o),
(328,502,cs),
(559,502,ls),
(590,502,o),
(617,515,o),
(637,535,cs),
(657,555,o),
(670,582,o),
(670,613,cs),
(670,644,o),
(657,671,o),
(637,691,cs),
(617,711,o),
(590,724,o),
(559,724,cs),
(66,724,l),
(66,0,l)
);
}
);
width = 724;
}
);
note = E;
unicode = 69;
},
{
glyphname = F;
lastChange = "2024-06-06 21:54:33 +0000";
layers = (
{
layerId = m01;
shapes = (
{
closed = 1;
nodes = (
(344,0,l),
(344,221,l),
(525,221,ls),
(553,221,o),
(579,233,o),
(597,251,cs),
(615,269,o),
(626,294,o),
(626,322,cs),
(626,350,o),
(615,375,o),
(597,393,cs),
(579,411,o),
(553,422,o),
(525,422,cs),
(344,422,l),
(344,523,l),
(525,523,ls),
(553,523,o),
(579,535,o),
(597,553,cs),
(615,571,o),
(626,595,o),
(626,623,cs),
(626,651,o),
(615,677,o),
(597,695,cs),
(579,713,o),
(553,724,o),
(525,724,cs),
(263,724,ls),
(207,724,o),
(157,701,o),
(121,665,cs),
(85,629,o),
(62,579,o),
(62,523,cs),
(62,201,ls),
(62,145,o),
(85,95,o),
(121,59,cs),
(157,23,o),
(207,0,o),
(263,0,cs)
);
}
);
width = 667;
}
);
note = F;
unicode = 70;
},
{
glyphname = G;
lastChange = "2024-06-06 21:54:33 +0000";
layers = (
{
layerId = m01;
shapes = (
{
closed = 1;
nodes = (
(460,0,ls),
(504,0,o),
(545,18,o),
(574,47,cs),
(603,76,o),
(621,117,o),
(621,161,cs),
(621,442,l),
(460,442,ls),
(416,442,o),
(380,406,o),
(380,362,cs),
(380,317,o),
(416,281,o),
(460,281,cs),
(490,281,ls),
(518,281,o),
(541,259,o),
(541,231,cs),
(541,203,o),
(518,181,o),
(490,181,cs),
(319,181,l),
(319,522,l),
(500,522,ls),
(528,522,o),
(554,534,o),
(572,552,cs),
(590,570,o),
(601,595,o),
(601,623,cs),
(601,651,o),
(590,677,o),
(572,695,cs),
(554,713,o),
(528,724,o),
(500,724,cs),
(218,724,ls),
(174,724,o),
(133,706,o),
(104,677,cs),
(75,648,o),
(57,607,o),
(57,563,cs),
(57,161,ls),
(57,117,o),
(75,76,o),
(104,47,cs),
(133,18,o),
(174,0,o),
(218,0,cs)
);
}
);
width = 675;
}
);
note = G;
unicode = 71;
},
{
glyphname = H;
lastChange = "2024-06-06 21:54:33 +0000";
layers = (
{
layerId = m01;
shapes = (
{
closed = 1;
nodes = (
(219,0,o),
(250,14,o),
(272,36,cs),
(294,58,o),
(307,87,o),
(307,120,cs),
(307,281,ls),
(307,304,o),
(324,322,o),
(347,322,cs),
(370,322,o),
(387,304,o),
(387,281,cs),
(387,120,ls),
(387,87,o),
(401,58,o),
(423,36,cs),
(445,14,o),
(475,0,o),
(508,0,cs),
(541,0,o),
(572,14,o),
(594,36,cs),
(616,58,o),
(629,87,o),
(629,120,cs),
(629,603,ls),
(629,636,o),
(616,667,o),
(594,689,cs),
(572,711,o),
(541,724,o),
(508,724,cs),
(475,724,o),
(445,711,o),
(423,689,cs),
(401,667,o),
(387,636,o),
(387,603,cs),
(387,442,ls),
(387,419,o),
(370,402,o),
(347,402,cs),
(324,402,o),
(307,419,o),
(307,442,cs),
(307,603,ls),
(307,636,o),
(294,667,o),
(272,689,cs),
(250,711,o),
(219,724,o),
(186,724,cs),
(153,724,o),
(123,711,o),
(101,689,cs),
(79,667,o),
(65,636,o),
(65,603,cs),
(65,120,ls),
(65,87,o),
(79,58,o),
(101,36,cs),
(123,14,o),
(153,0,o),
(186,0,cs)
);
}
);
width = 691;
}
);
note = H;
unicode = 72;
},
{
glyphname = I;
lastChange = "2024-06-06 21:54:33 +0000";
layers = (
{
layerId = m01;
shapes = (
{
closed = 1;
nodes = (
(580,0,ls),
(603,0,o),
(620,17,o),
(620,40,cs),
(620,63,o),
(603,81,o),
(580,81,cs),
(459,81,l),
(459,644,l),
(580,644,ls),
(603,644,o),
(620,661,o),
(620,684,cs),
(620,707,o),
(603,724,o),
(580,724,cs),
(97,724,ls),
(74,724,o),
(56,707,o),
(56,684,cs),
(56,661,o),
(74,644,o),
(97,644,cs),
(217,644,l),
(217,81,l),
(97,81,ls),
(74,81,o),
(56,63,o),
(56,40,cs),
(56,17,o),
(74,0,o),
(97,0,cs)
);
}
);
width = 675;
}
);
note = I;
unicode = 73;
},
{
glyphname = J;
lastChange = "2024-06-06 21:54:33 +0000";
layers = (
{
layerId = m01;
shapes = (
{
closed = 1;
nodes = (
(399,0,o),
(468,31,o),
(520,83,cs),
(571,134,o),
(602,205,o),
(602,282,cs),
(602,724,l),
(541,724,ls),
(497,724,o),
(456,706,o),
(427,677,cs),
(398,648,o),
(380,607,o),
(380,563,cs),
(380,342,ls),
(380,309,o),
(353,282,o),
(320,282,cs),
(287,282,o),
(260,309,o),
(260,342,cs),
(260,392,ls),
(260,423,o),
(247,450,o),
(227,470,cs),
(207,490,o),
(180,503,o),
(149,503,cs),
(38,503,l),
(38,282,ls),
(38,205,o),
(69,134,o),
(121,83,cs),
(172,31,o),
(243,0,o),
(320,0,cs)
);
}
);
width = 650;
}
);
note = J;
unicode = 74;
},
{
glyphname = K;
lastChange = "2024-06-06 21:54:33 +0000";
layers = (
{
layerId = m01;
shapes = (
{
closed = 1;
nodes = (
(205,0,o),
(232,13,o),
(252,33,cs),
(272,53,o),
(285,80,o),
(285,111,cs),
(285,302,l),
(406,302,l),
(406,111,ls),
(406,80,o),
(418,53,o),
(438,33,cs),
(458,13,o),
(485,0,o),
(516,0,cs),
(547,0,o),
(575,13,o),
(595,33,cs),
(615,53,o),
(627,80,o),
(627,111,cs),
(627,342,ls),
(627,365,o),
(610,382,o),
(587,382,cs),
(423,382,l),
(604,563,ls),
(619,578,o),
(627,597,o),
(627,620,cs),
(627,664,o),
(591,700,o),
(547,700,cs),
(524,700,o),
(505,692,o),
(490,676,cs),
(285,472,l),
(285,614,ls),
(285,645,o),
(272,672,o),
(252,692,cs),
(232,712,o),
(205,724,o),
(174,724,cs),
(143,724,o),
(116,712,o),
(96,692,cs),
(76,672,o),
(63,645,o),
(63,614,cs),
(63,111,ls),
(63,80,o),
(76,53,o),
(96,33,cs),
(116,13,o),
(143,0,o),
(174,0,cs)
);
}
);
width = 683;
}
);
note = K;
unicode = 75;
},
{
glyphname = L;
lastChange = "2024-06-06 21:54:33 +0000";
layers = (
{
layerId = m01;
shapes = (
{
closed = 1;
nodes = (
(510,0,ls),
(541,0,o),
(569,12,o),
(589,32,cs),
(609,52,o),
(621,79,o),
(621,110,cs),
(621,141,o),
(609,168,o),
(589,188,cs),
(569,208,o),
(541,221,o),
(510,221,cs),
(329,221,l),
(329,723,l),
(279,723,ls),
(218,723,o),
(162,698,o),
(122,658,cs),
(82,618,o),
(57,563,o),
(57,502,cs),
(57,110,ls),
(57,79,o),
(70,52,o),
(90,32,cs),
(110,12,o),
(137,0,o),
(168,0,cs)
);
}
);
width = 650;
}
);
note = L;
unicode = 76;
},
{
glyphname = M;
lastChange = "2024-06-06 21:54:33 +0000";
layers = (
{
layerId = m01;
shapes = (
{
closed = 1;
nodes = (
(263,0,l),
(263,442,l),
(343,442,l),
(343,221,ls),
(343,176,o),
(379,140,o),
(424,140,cs),
(468,140,o),
(504,176,o),
(504,221,cs),
(504,442,l),
(585,442,l),
(585,0,l),
(786,0,l),
(786,623,ls),
(786,679,o),
(742,723,o),
(686,723,cs),
(162,723,ls),
(134,723,o),
(110,712,o),
(91,694,cs),
(72,676,o),
(61,651,o),
(61,623,cs),
(61,0,l)
);
}
);
width = 846;
}
);
note = M;
unicode = 77;
},
{
glyphname = N;
lastChange = "2024-06-06 21:54:33 +0000";
layers = (
{
layerId = m01;
shapes = (
{
closed = 1;
nodes = (
(188,0,o),
(214,12,o),
(232,30,cs),
(250,48,o),
(261,72,o),
(261,100,cs),
(261,495,l),
(422,334,l),
(422,100,ls),
(422,44,o),
(466,0,o),
(522,0,cs),
(550,0,o),
(576,12,o),
(594,30,cs),
(612,48,o),
(623,72,o),
(623,100,cs),
(623,623,ls),
(623,651,o),
(612,677,o),
(594,695,cs),
(576,713,o),
(550,724,o),
(522,724,cs),
(494,724,o),
(470,713,o),
(452,695,cs),
(434,677,o),
(422,651,o),
(422,623,cs),
(422,505,l),
(240,686,ls),
(238,688,o),
(236,689,o),
(235,690,cs),
(216,711,o),
(191,724,o),
(160,724,cs),
(132,724,o),
(107,713,o),
(89,695,cs),
(71,677,o),
(59,651,o),
(59,623,cs),
(59,100,ls),
(59,72,o),
(71,48,o),
(89,30,cs),
(107,12,o),
(132,0,o),
(160,0,cs)
);
}
);
width = 683;
}
);
note = N;
unicode = 78;
},
{
glyphname = O;
lastChange = "2024-06-06 21:54:33 +0000";
layers = (
{
layerId = m01;
shapes = (
{
closed = 1;
nodes = (
(412,0,o),
(481,31,o),
(533,83,cs),
(584,134,o),
(615,205,o),
(615,282,cs),
(615,442,ls),
(615,521,o),
(584,590,o),
(533,642,cs),
(481,693,o),
(412,724,o),
(333,724,cs),
(256,724,o),
(185,693,o),
(134,642,cs),
(83,590,o),
(51,521,o),
(51,442,cs),
(51,282,ls),
(51,205,o),
(83,134,o),
(134,83,cs),
(185,31,o),
(256,0,o),
(333,0,cs)
);
},
{
closed = 1;
nodes = (
(310,81,o),
(293,98,o),
(293,121,cs),
(293,603,ls),
(293,626,o),
(310,644,o),
(333,644,cs),
(356,644,o),
(374,626,o),
(374,603,cs),
(374,121,ls),
(374,98,o),
(356,81,o),
(333,81,cs)
);
}
);
width = 667;
}
);
note = O;
unicode = 79;
},
{
glyphname = P;
lastChange = "2024-06-06 21:54:33 +0000";
layers = (
{
layerId = m01;
shapes = (
{
closed = 1;
nodes = (
(226,0,o),
(259,15,o),
(283,39,cs),
(306,62,o),
(321,95,o),
(321,131,cs),
(321,282,l),
(405,282,o),
(480,315,o),
(535,370,cs),
(590,425,o),
(623,500,o),
(623,584,cs),
(623,724,l),
(59,724,l),
(59,131,ls),
(59,95,o),
(74,62,o),
(98,39,cs),
(121,15,o),
(154,0,o),
(190,0,cs)
);
},
{
closed = 1;
nodes = (
(321,523,ls),
(321,546,o),
(338,563,o),
(361,563,cs),
(384,563,o),
(402,546,o),
(402,523,cs),
(402,362,l),
(321,362,l)
);
}
);
width = 659;
}
);
note = P;
unicode = 80;
},
{
glyphname = Q;
lastChange = "2024-06-06 21:54:33 +0000";
layers = (
{
layerId = m01;
shapes = (
{
closed = 1;
nodes = (
(454,0,l),
(454,160,l),
(498,160,o),
(539,178,o),
(568,207,cs),
(597,236,o),
(615,277,o),
(615,321,cs),
(615,563,ls),
(615,607,o),
(597,647,o),
(568,676,cs),
(539,705,o),
(498,723,o),
(454,723,cs),
(212,723,ls),
(168,723,o),
(127,705,o),
(98,676,cs),
(69,647,o),
(51,607,o),
(51,563,cs),
(51,321,ls),
(51,277,o),
(69,236,o),
(98,207,cs),
(127,178,o),
(168,160,o),
(212,160,c),
(212,116,o),
(230,76,o),
(259,47,cs),
(288,18,o),
(329,0,o),
(373,0,cs)
);
},
{
closed = 1;
nodes = (
(310,241,o),
(293,258,o),
(293,281,cs),
(293,643,l),
(373,643,l),
(373,281,ls),
(373,258,o),
(356,241,o),
(333,241,cs)
);
}
);
width = 659;
}
);
note = Q;
unicode = 81;
},
{
glyphname = R;
lastChange = "2024-06-06 21:54:33 +0000";
layers = (
{
layerId = m01;
shapes = (
{
closed = 1;
nodes = (
(229,0,o),
(262,14,o),
(286,38,cs),
(309,62,o),
(324,95,o),
(324,131,cs),
(324,301,l),
(404,301,l),
(404,110,ls),
(404,79,o),
(417,52,o),
(437,32,cs),
(457,12,o),
(484,0,o),
(515,0,cs),
(546,0,o),
(573,12,o),
(593,32,cs),
(613,52,o),
(626,79,o),
(626,110,cs),
(626,342,ls),
(626,365,o),
(609,382,o),
(586,382,cs),
(505,382,l),
(578,438,o),
(626,524,o),
(626,623,cs),
(626,724,l),
(62,724,l),
(62,131,ls),
(62,95,o),
(77,62,o),
(101,38,cs),
(124,14,o),
(157,0,o),
(193,0,cs)
);
},
{
closed = 1;
nodes = (
(324,563,ls),
(324,586,o),
(341,603,o),
(364,603,cs),
(387,603,o),
(404,586,o),
(404,563,cs),
(404,382,l),
(324,382,l)
);
}
);
width = 683;
}
);
note = R;
unicode = 82;
},
{
glyphname = S;
lastChange = "2024-06-06 21:54:33 +0000";
layers = (
{
layerId = m01;
shapes = (
{
closed = 1;
nodes = (
(443,0,ls),
(494,0,o),
(539,20,o),
(572,53,cs),
(604,86,o),
(625,132,o),
(625,181,cs),
(625,241,ls),
(625,292,o),
(604,336,o),
(572,369,cs),
(539,402,o),
(494,422,o),
(443,422,cs),
(242,422,ls),
(219,422,o),
(202,439,o),
(202,462,cs),
(202,485,o),
(219,502,o),
(242,502,cs),
(514,502,ls),
(545,502,o),
(572,515,o),
(592,535,cs),
(612,555,o),
(625,582,o),
(625,613,cs),
(625,644,o),
(612,671,o),
(592,691,cs),
(572,711,o),
(545,723,o),
(514,723,cs),
(222,723,ls),
(178,723,o),
(137,705,o),
(108,676,cs),
(79,647,o),
(61,607,o),
(61,563,cs),
(61,482,ls),
(61,438,o),
(79,397,o),
(108,368,cs),
(137,339,o),
(178,321,o),
(222,321,cs),
(443,321,ls),
(466,321,o),
(484,304,o),
(484,281,cs),
(484,258,o),
(466,241,o),
(443,241,cs),
(182,241,ls),
(149,241,o),
(119,228,o),
(97,206,cs),
(75,184,o),
(61,153,o),
(61,120,cs),
(61,87,o),
(75,58,o),
(97,36,cs),
(119,14,o),
(149,0,o),
(182,0,cs)
);
}
);
width = 683;
}
);
note = S;
unicode = 83;
},
{
glyphname = T;
lastChange = "2024-06-06 21:54:33 +0000";
layers = (
{
layerId = m01;
shapes = (
{
closed = 1;
nodes = (
(444,482,l),
(485,482,ls),
(518,482,o),
(549,496,o),
(571,518,cs),
(593,540,o),
(606,570,o),
(606,603,cs),
(606,636,o),
(593,666,o),
(571,688,cs),
(549,710,o),
(518,723,o),
(485,723,cs),
(163,723,ls),
(130,723,o),
(100,710,o),
(78,688,cs),
(56,666,o),
(42,636,o),
(42,603,cs),
(42,570,o),
(56,540,o),
(78,518,cs),
(100,496,o),
(130,482,o),
(163,482,cs),
(203,482,l),
(203,241,ls),
(203,174,o),
(230,114,o),
(274,71,cs),
(317,27,o),
(377,0,o),
(444,0,c)
);
}
);
width = 650;
}
);
note = T;
unicode = 84;
},
{
glyphname = U;
lastChange = "2024-06-06 21:54:33 +0000";
layers = (
{
layerId = m01;
shapes = (
{
closed = 1;
nodes = (
(419,0,o),
(488,31,o),
(540,83,cs),
(591,134,o),
(622,204,o),
(622,281,cs),
(622,603,ls),
(622,636,o),
(609,666,o),
(587,688,cs),
(565,710,o),
(534,723,o),
(501,723,cs),
(468,723,o),
(438,710,o),
(416,688,cs),
(394,666,o),
(380,636,o),
(380,603,cs),
(380,241,ls),
(380,218,o),
(363,201,o),
(340,201,cs),
(317,201,o),
(300,218,o),
(300,241,cs),
(300,603,ls),
(300,636,o),
(287,666,o),
(265,688,cs),
(243,710,o),
(212,723,o),
(179,723,cs),
(146,723,o),
(116,710,o),
(94,688,cs),
(72,666,o),
(58,636,o),
(58,603,cs),
(58,281,ls),
(58,204,o),
(89,134,o),
(141,83,cs),
(192,31,o),
(263,0,o),
(340,0,cs)
);
}
);
width = 675;
}
);
note = U;
unicode = 85;
},
{
glyphname = V;
lastChange = "2024-06-06 21:54:33 +0000";
layers = (
{
layerId = m01;
shapes = (
{
closed = 1;
nodes = (
(416,68,o),
(486,155,o),
(535,254,cs),
(583,353,o),
(611,466,o),
(611,583,cs),
(611,723,l),
(370,723,l),
(370,221,l),
(289,221,l),
(289,723,l),
(47,723,l),
(47,583,ls),
(47,466,o),
(75,353,o),
(124,254,cs),
(172,155,o),
(244,68,o),
(329,0,c)
);
}
);
width = 659;
}
);
note = V;
unicode = 86;
},
{
glyphname = W;
lastChange = "2024-06-06 21:54:33 +0000";
layers = (
{
layerId = m01;
shapes = (
{
closed = 1;
nodes = (
(502,0,ls),
(581,0,o),
(650,31,o),
(702,83,cs),
(753,134,o),
(784,204,o),
(784,281,cs),
(784,724,l),
(583,724,l),
(583,281,l),
(502,281,l),
(502,503,ls),
(502,547,o),
(466,583,o),
(422,583,cs),
(377,583,o),
(341,547,o),
(341,503,cs),
(341,281,l),
(261,281,l),
(261,724,l),
(59,724,l),
(59,281,ls),
(59,204,o),
(91,134,o),
(142,83,cs),
(193,31,o),
(264,0,o),
(341,0,cs)
);
}
);
width = 837;
}
);
note = W;
unicode = 87;
},
{
glyphname = X;
lastChange = "2024-06-06 21:54:33 +0000";
layers = (
{
layerId = m01;
shapes = (
{
closed = 1;
nodes = (
(185,0,o),
(211,9,o),
(231,29,cs),
(422,220,l),
(612,29,ls),
(632,9,o),
(658,0,o),
(684,0,cs),
(710,0,o),
(735,9,o),
(755,29,cs),
(775,49,o),
(784,75,o),
(784,101,cs),
(784,127,o),
(775,151,o),
(755,171,cs),
(564,362,l),
(755,552,ls),
(775,572,o),
(784,598,o),
(784,623,cs),
(784,648,o),
(775,674,o),
(755,694,cs),
(735,714,o),
(710,724,o),
(684,724,cs),
(658,724,o),
(632,714,o),
(612,694,cs),
(422,504,l),
(231,694,ls),
(211,714,o),
(185,724,o),
(160,724,cs),
(135,724,o),
(109,714,o),
(89,694,cs),
(69,674,o),
(60,648,o),
(60,623,cs),
(60,598,o),
(69,572,o),
(89,552,cs),
(279,362,l),
(89,171,ls),
(69,151,o),
(60,127,o),
(60,101,cs),
(60,75,o),
(69,49,o),
(89,29,cs),
(109,9,o),
(135,0,o),
(160,0,cs)
);
}
);
width = 837;
}
);
note = X;
unicode = 88;
},
{
glyphname = Y;
lastChange = "2024-06-06 21:54:33 +0000";
layers = (
{
layerId = m01;
shapes = (
{
closed = 1;
nodes = (
(375,0,o),
(411,36,o),
(411,79,cs),
(411,322,l),
(514,322,ls),
(547,322,o),
(576,338,o),
(595,363,cs),
(607,380,o),
(615,399,o),
(615,422,cs),
(615,724,l),
(559,724,o),
(508,701,o),
(472,665,cs),
(436,629,o),
(413,579,o),
(413,523,cs),
(413,422,l),
(252,422,l),
(252,523,ls),
(252,579,o),
(229,629,o),
(193,665,cs),
(157,701,o),
(107,724,o),
(51,724,c),
(51,422,ls),
(51,401,o),
(57,381,o),
(70,363,cs),
(89,338,o),
(118,322,o),
(151,322,cs),
(252,322,l),
(252,79,ls),
(252,36,o),
(288,0,o),
(331,0,cs)
);
}
);
width = 659;
}
);
note = Y;
unicode = 89;
},
{
glyphname = Z;
lastChange = "2024-06-06 21:54:33 +0000";
layers = (
{
layerId = m01;
shapes = (
{
closed = 1;
nodes = (
(498,0,ls),
(534,0,o),
(567,14,o),
(591,38,cs),
(614,62,o),
(629,95,o),
(629,131,cs),
(629,167,o),
(614,199,o),
(591,223,cs),
(567,247,o),
(534,261,o),
(498,261,cs),
(246,261,l),
(246,342,l),
(407,342,ls),
(468,342,o),
(524,367,o),
(564,407,cs),
(604,447,o),
(629,502,o),
(629,563,cs),
(629,724,l),
(65,724,l),
(65,668,o),
(88,618,o),
(124,582,cs),
(160,546,o),
(210,523,o),
(266,523,cs),
(367,523,l),
(367,442,l),
(246,442,ls),
(197,442,o),
(151,422,o),
(118,389,cs),
(85,356,o),
(65,312,o),
(65,261,cs),
(65,0,l)
);
}
);
width = 691;
}
);
note = Z;
unicode = 90;
},
{
glyphname = a;
lastChange = "2024-06-06 21:54:33 +0000";
layers = (
{
layerId = m01;
shapes = (
{
closed = 1;
nodes = (
(624,0,l),
(624,563,ls),
(624,607,o),
(606,648,o),
(577,677,cs),
(548,706,o),
(507,724,o),
(463,724,cs),
(60,724,l),
(60,684,ls),
(60,640,o),
(78,599,o),
(107,570,cs),
(136,541,o),
(177,523,o),
(221,523,cs),
(382,523,l),
(382,442,l),
(221,442,ls),
(177,442,o),
(136,424,o),
(107,395,cs),
(78,366,o),
(60,325,o),
(60,281,cs),
(60,161,ls),
(60,117,o),
(78,76,o),
(107,47,cs),
(136,18,o),
(177,0,o),
(221,0,cs)
);
},
{
closed = 1;
nodes = (
(319,121,o),
(302,138,o),
(302,161,cs),
(302,362,l),
(382,362,l),
(382,161,ls),
(382,138,o),
(365,121,o),
(342,121,cs)
);
}
);
width = 675;
}
);
note = a;
unicode = 97;
},
{
glyphname = b;
lastChange = "2024-06-06 21:54:33 +0000";
layers = (
{
layerId = m01;
shapes = (
{
closed = 1;
nodes = (
(384,0,ls),
(451,0,o),
(511,27,o),
(555,71,cs),
(599,114,o),
(626,174,o),
(626,241,cs),
(626,308,o),
(599,368,o),
(555,412,cs),
(511,456,o),
(451,483,o),
(384,483,cs),
(303,483,l),
(303,724,l),
(62,724,l),
(62,0,l)
);
},
{
closed = 1;
nodes = (
(321,161,o),
(303,178,o),
(303,201,cs),
(303,402,l),
(384,402,l),
(384,201,ls),
(384,178,o),
(367,161,o),
(344,161,cs)
);
}
);
width = 659;
}
);
note = b;
unicode = 98;
},
{
glyphname = c;
lastChange = "2024-06-06 21:54:33 +0000";
layers = (
{
layerId = m01;
shapes = (
{
closed = 1;
nodes = (
(500,0,ls),
(533,0,o),
(564,14,o),
(586,36,cs),
(608,58,o),
(621,88,o),
(621,121,cs),
(621,161,ls),
(621,194,o),
(608,224,o),
(586,246,cs),
(564,268,o),
(533,281,o),
(500,281,cs),
(319,281,l),
(319,643,l),
(419,643,l),
(419,462,ls),
(419,434,o),
(430,410,o),
(449,392,cs),
(468,374,o),
(492,362,o),
(520,362,cs),
(548,362,o),
(574,374,o),
(592,392,cs),
(610,410,o),
(621,434,o),
(621,462,cs),
(621,724,l),
(57,724,l),
(57,322,ls),
(57,233,o),
(94,153,o),
(152,95,cs),
(210,37,o),
(290,0,o),
(379,0,cs)
);
}
);
width = 675;
}
);
note = c;
unicode = 99;
},
{
glyphname = d;
lastChange = "2024-06-06 21:54:33 +0000";
layers = (
{
layerId = m01;
shapes = (
{
closed = 1;
nodes = (
(602,0,l),
(602,724,l),
(361,724,l),
(361,483,l),
(280,483,ls),
(213,483,o),
(153,456,o),
(109,412,cs),
(65,368,o),
(38,308,o),
(38,241,cs),
(38,174,o),
(65,114,o),
(109,71,cs),
(153,27,o),
(213,0,o),
(280,0,cs)
);
},
{
closed = 1;
nodes = (
(297,161,o),
(280,178,o),
(280,201,cs),
(280,402,l),
(361,402,l),
(361,201,ls),
(361,178,o),
(343,161,o),
(320,161,cs)
);
}
);
width = 667;
}
);
note = d;
unicode = 100;
},
{
glyphname = e;
lastChange = "2024-06-06 21:54:33 +0000";
layers = (
{
layerId = m01;
shapes = (
{
closed = 1;
nodes = (
(503,0,ls),
(536,0,o),
(567,14,o),
(589,36,cs),
(611,58,o),
(624,88,o),
(624,121,cs),
(624,154,o),
(611,184,o),
(589,206,cs),
(567,228,o),
(536,241,o),
(503,241,cs),
(261,241,l),
(261,322,l),
(402,322,ls),
(463,322,o),
(519,347,o),
(559,387,cs),
(599,427,o),
(624,482,o),
(624,543,cs),
(624,724,l),
(60,724,l),
(60,322,ls),
(60,233,o),
(97,153,o),
(155,95,cs),
(213,37,o),
(293,0,o),
(382,0,cs)
);
},
{
closed = 1;
nodes = (
(261,483,l),
(422,483,ls),
(445,483,o),
(462,465,o),
(462,442,cs),
(462,419,o),
(445,402,o),
(422,402,cs),
(261,402,l)
);
}
);
width = 683;
}
);
note = e;
unicode = 101;
},
{
glyphname = f;
lastChange = "2024-06-06 21:54:33 +0000";
layers = (
{
layerId = m01;
shapes = (
{
closed = 1;
nodes = (
(337,0,l),
(337,221,l),
(518,221,ls),
(546,221,o),
(572,233,o),
(590,251,cs),
(608,269,o),
(619,293,o),
(619,321,cs),
(619,349,o),
(608,375,o),
(590,393,cs),
(572,411,o),
(546,422,o),
(518,422,cs),
(337,422,l),
(337,522,l),
(518,522,ls),
(546,522,o),
(572,534,o),
(590,552,cs),
(608,570,o),
(619,595,o),
(619,623,cs),
(619,651,o),
(608,677,o),
(590,695,cs),
(572,713,o),
(546,724,o),
(518,724,cs),
(256,724,l),
(256,603,l),
(246,603,ls),
(194,603,o),
(146,582,o),
(111,547,cs),
(76,512,o),
(55,464,o),
(55,412,cs),
(55,201,ls),
(55,145,o),
(78,95,o),
(114,59,cs),
(150,23,o),
(200,0,o),
(256,0,cs)
);
}
);
width = 659;
}
);
note = f;
unicode = 102;
},
{
glyphname = g;
lastChange = "2024-06-06 21:54:33 +0000";
layers = (
{
layerId = m01;
shapes = (
{
closed = 1;
nodes = (
(419,0,ls),
(475,0,o),
(525,23,o),
(561,59,cs),
(597,95,o),
(620,145,o),
(620,201,cs),
(620,724,l),
(207,724,ls),
(166,724,o),
(128,707,o),
(101,680,cs),
(73,652,o),
(56,614,o),
(56,573,cs),
(56,422,ls),
(56,389,o),
(70,360,o),
(92,338,cs),
(114,316,o),
(144,302,o),
(177,302,cs),
(399,302,l),
(399,221,l),
(56,221,l),
(56,161,ls),
(56,117,o),
(74,76,o),
(103,47,cs),
(132,18,o),
(173,0,o),
(217,0,cs)
);
},
{
closed = 1;
nodes = (
(235,382,o),
(217,399,o),
(217,422,cs),
(217,445,o),
(235,462,o),
(258,462,cs),
(399,462,l),
(399,382,l),
(258,382,ls)
);
}
);
width = 675;
}
);
note = g;
unicode = 103;
},
{
glyphname = h;
lastChange = "2024-06-06 21:54:33 +0000";
layers = (
{
layerId = m01;
shapes = (
{
closed = 1;
nodes = (
(239,0,o),
(275,16,o),
(300,41,cs),
(325,66,o),
(341,102,o),
(341,141,cs),
(341,382,l),
(422,382,l),
(422,101,ls),
(422,73,o),
(434,48,o),
(452,30,cs),
(470,12,o),
(494,0,o),
(522,0,cs),
(550,0,o),
(576,12,o),
(594,30,cs),
(612,48,o),
(623,73,o),
(623,101,cs),
(623,362,ls),
(623,390,o),
(612,416,o),
(594,434,cs),
(576,452,o),
(550,463,o),
(522,463,cs),
(341,463,l),
(341,724,l),
(59,724,l),
(59,141,ls),
(59,102,o),
(75,66,o),
(100,41,cs),
(125,16,o),
(161,0,o),
(200,0,cs)
);
}
);
width = 667;
}
);
note = h;
unicode = 104;
},
{
glyphname = i;
lastChange = "2024-06-06 21:54:33 +0000";
layers = (
{
layerId = m01;
shapes = (
{
closed = 1;
nodes = (
(402,0,l),
(402,382,l),
(422,382,ls),
(455,382,o),
(482,408,o),
(482,443,cs),
(482,476,o),
(455,503,o),
(422,503,cs),
(100,503,ls),
(65,503,o),
(39,476,o),
(39,443,cs),
(39,408,o),
(65,382,o),
(100,382,cs),
(120,382,l),
(120,242,ls),
(120,175,o),
(147,115,o),
(191,71,cs),
(234,27,o),
(294,0,o),
(361,0,cs)
);
},
{
closed = 1;
nodes = (
(305,563,o),
(341,599,o),
(341,644,cs),
(341,688,o),
(305,724,o),
(261,724,cs),
(216,724,o),
(180,688,o),
(180,644,cs),
(180,599,o),
(216,563,o),
(261,563,cs)
);
}
);
width = 520;
}
);
note = i;
unicode = 105;
},
{
glyphname = j;
lastChange = "2024-06-06 21:54:33 +0000";
layers = (
{
layerId = m01;
shapes = (
{
closed = 1;
nodes = (
(378,0,ls),
(439,0,o),
(495,25,o),
(535,65,cs),
(575,105,o),
(600,160,o),
(600,221,cs),
(600,522,l),
(519,522,ls),
(480,522,o),
(446,506,o),
(420,481,cs),
(394,456,o),
(378,421,o),
(378,382,cs),
(378,120,l),
(278,120,l),
(278,281,ls),
(278,314,o),
(265,345,o),
(243,367,cs),
(221,389,o),
(190,402,o),
(157,402,cs),
(36,402,l),
(36,211,ls),
(36,152,o),
(59,100,o),
(98,62,cs),
(137,24,o),
(189,0,o),
(248,0,cs)
);
},
{
closed = 1;
nodes = (
(564,563,o),
(600,599,o),
(600,643,cs),
(600,687,o),
(564,723,o),
(519,723,cs),
(475,723,o),
(439,687,o),
(439,643,cs),
(439,599,o),
(475,563,o),
(519,563,cs)
);
}
);
width = 659;
}
);
note = j;
unicode = 106;
},
{
glyphname = k;
lastChange = "2024-06-06 21:54:33 +0000";
layers = (
{
layerId = m01;
shapes = (
{
closed = 1;
nodes = (
(202,0,o),
(230,13,o),
(250,33,cs),
(270,53,o),
(282,80,o),
(282,111,cs),
(282,302,l),
(403,302,l),
(403,111,ls),
(403,80,o),
(416,53,o),
(436,33,cs),
(456,13,o),
(483,0,o),
(514,0,cs),
(545,0,o),
(572,13,o),
(592,33,cs),
(612,53,o),
(625,80,o),
(625,111,cs),
(625,342,ls),
(625,365,o),
(607,382,o),
(584,382,cs),
(524,382,l),
(524,563,ls),
(524,608,o),
(488,644,o),
(443,644,cs),
(399,644,o),
(363,608,o),
(363,563,cs),
(363,382,l),
(282,382,l),
(282,613,ls),
(282,644,o),
(270,672,o),
(250,692,cs),
(230,712,o),
(202,724,o),
(171,724,cs),
(140,724,o),
(113,712,o),
(93,692,cs),
(73,672,o),
(61,644,o),
(61,613,cs),
(61,111,ls),
(61,80,o),
(73,53,o),
(93,33,cs),
(113,13,o),
(140,0,o),
(171,0,cs)
);
}
);
width = 667;
}
);
note = k;
unicode = 107;
},
{
glyphname = l;
lastChange = "2024-06-06 21:54:33 +0000";
layers = (
{
layerId = m01;
shapes = (
{
closed = 1;
nodes = (
(280,0,ls),
(311,0,o),
(338,13,o),
(358,33,cs),
(378,53,o),
(391,80,o),
(391,111,cs),
(391,142,o),
(378,169,o),
(358,189,cs),
(338,209,o),
(311,221,o),
(280,221,c),
(280,724,l),
(219,724,o),
(164,699,o),
(124,659,cs),
(84,619,o),
(59,564,o),
(59,503,cs),
(59,111,ls),
(59,80,o),
(71,53,o),
(91,33,cs),
(111,13,o),
(138,0,o),
(169,0,cs)
);
}
);
width = 431;
}
);
note = l;
unicode = 108;
},
{
glyphname = m;
lastChange = "2024-06-06 21:54:33 +0000";
layers = (
{
layerId = m01;
shapes = (
{
closed = 1;
nodes = (
(187,0,o),
(213,12,o),
(231,30,cs),
(249,48,o),
(260,73,o),
(260,101,cs),
(260,463,l),
(341,463,l),
(341,201,ls),
(341,157,o),
(377,121,o),
(421,121,cs),
(466,121,o),
(502,157,o),
(502,201,cs),
(502,463,l),
(582,463,l),
(582,101,ls),
(582,73,o),
(594,48,o),
(612,30,cs),
(630,12,o),
(655,0,o),
(683,0,cs),
(711,0,o),
(737,12,o),
(755,30,cs),
(773,48,o),
(784,73,o),
(784,101,cs),
(784,443,ls),
(784,520,o),
(752,590,o),
(701,642,cs),
(650,693,o),
(579,724,o),
(502,724,cs),
(59,724,l),
(59,101,ls),
(59,73,o),
(71,48,o),
(89,30,cs),
(107,12,o),
(131,0,o),
(159,0,cs)
);
}
);
width = 837;
}
);
note = m;
unicode = 109;
},
{
glyphname = n;
lastChange = "2024-06-06 21:54:33 +0000";
layers = (
{
layerId = m01;
shapes = (
{
closed = 1;
nodes = (
(188,0,o),
(214,12,o),
(232,30,cs),
(250,48,o),
(261,73,o),
(261,101,cs),
(261,463,l),
(422,463,l),
(422,101,ls),
(422,73,o),
(434,48,o),
(452,30,cs),
(470,12,o),
(494,0,o),
(522,0,cs),
(550,0,o),
(576,12,o),
(594,30,cs),
(612,48,o),
(623,73,o),
(623,101,cs),
(623,443,ls),
(623,520,o),
(592,590,o),
(541,642,cs),
(489,693,o),
(420,724,o),
(341,724,cs),
(59,724,l),
(59,101,ls),
(59,73,o),
(71,48,o),
(89,30,cs),
(107,12,o),
(132,0,o),
(160,0,cs)
);
}
);
width = 675;
}
);
note = n;
unicode = 110;
},
{
glyphname = o;
lastChange = "2024-06-06 21:54:33 +0000";
layers = (
{
layerId = m01;
shapes = (
{
closed = 1;
nodes = (
(619,0,l),
(619,442,ls),
(619,519,o),
(588,589,o),
(537,641,cs),
(485,692,o),
(416,723,o),
(337,723,cs),
(260,723,o),
(189,692,o),
(138,641,cs),
(87,589,o),
(55,519,o),
(55,442,cs),
(55,0,l)
);
},
{
closed = 1;
nodes = (
(297,422,ls),
(297,445,o),
(314,462,o),
(337,462,cs),
(360,462,o),
(378,445,o),
(378,422,cs),
(378,100,l),
(297,100,l)
);
}
);
width = 675;
}
);
note = o;
unicode = 111;
},
{
glyphname = p;
lastChange = "2024-06-06 21:54:33 +0000";
layers = (
{
layerId = m01;
shapes = (
{
closed = 1;
nodes = (
(223,0,o),
(255,14,o),
(279,38,cs),
(303,62,o),
(317,94,o),
(317,130,cs),
(317,281,l),
(401,281,o),
(476,314,o),
(531,369,cs),
(586,424,o),
(620,499,o),
(620,583,cs),
(620,723,l),
(358,723,ls),
(274,723,o),
(199,690,o),
(144,635,cs),
(89,580,o),
(56,505,o),
(56,422,cs),
(56,130,ls),
(56,94,o),
(70,62,o),
(94,38,cs),
(118,14,o),
(151,0,o),
(187,0,cs)
);
},
{
closed = 1;
nodes = (
(317,522,ls),
(317,545,o),
(335,563,o),
(358,563,cs),
(381,563,o),
(398,545,o),
(398,522,cs),
(398,361,l),
(317,361,l)
);
}
);
width = 650;
}
);
note = p;
unicode = 112;
},
{
glyphname = q;
lastChange = "2024-06-06 21:54:33 +0000";
layers = (
{
layerId = m01;
shapes = (
{
closed = 1;
nodes = (
(524,0,ls),
(569,0,o),
(605,36,o),
(605,81,cs),
(605,121,ls),
(605,165,o),
(569,201,o),
(524,201,c),
(524,724,l),
(41,724,l),
(41,463,ls),
(41,414,o),
(61,368,o),
(94,335,cs),
(127,302,o),
(173,282,o),
(222,282,cs),
(323,282,l),
(323,161,ls),
(323,117,o),
(341,76,o),
(370,47,cs),
(399,18,o),
(440,0,o),
(484,0,cs)
);
},
{
closed = 1;
nodes = (
(199,423,o),
(182,440,o),
(182,463,cs),
(182,486,o),
(199,503,o),
(222,503,cs),
(323,503,l),
(323,423,l),
(222,423,ls)
);
}
);
width = 650;
}
);
note = q;
unicode = 113;
},
{
glyphname = r;
lastChange = "2024-06-06 21:54:33 +0000";
layers = (
{
layerId = m01;
shapes = (
{
closed = 1;
nodes = (
(217,0,o),
(248,14,o),
(270,36,cs),
(292,58,o),
(305,87,o),
(305,120,cs),
(305,643,l),
(386,643,l),
(386,522,ls),
(386,489,o),
(400,460,o),
(422,438,cs),
(444,416,o),
(473,402,o),
(506,402,cs),
(539,402,o),
(570,416,o),
(592,438,cs),
(614,460,o),
(627,489,o),
(627,522,cs),
(627,603,ls),
(627,636,o),
(614,666,o),
(592,688,cs),
(570,710,o),
(539,723,o),
(506,723,cs),
(63,723,l),
(63,120,ls),
(63,87,o),
(77,58,o),
(99,36,cs),
(121,14,o),
(151,0,o),
(184,0,cs)
);
}
);
width = 659;
}
);
note = r;
unicode = 114;
},
{
glyphname = s;
lastChange = "2024-06-06 21:54:33 +0000";
layers = (
{
layerId = m01;
shapes = (
{
closed = 1;
nodes = (
(431,0,ls),
(482,0,o),
(526,20,o),
(559,53,cs),
(592,85,o),
(612,131,o),
(612,180,cs),
(612,241,ls),
(612,292,o),
(592,336,o),
(559,369,cs),
(526,402,o),
(482,422,o),
(431,422,cs),
(330,422,ls),
(307,422,o),
(290,439,o),
(290,462,cs),
(290,485,o),
(307,502,o),
(330,502,cs),
(501,502,ls),
(532,502,o),
(560,515,o),
(580,535,cs),
(600,555,o),
(612,582,o),
(612,613,cs),
(612,644,o),
(600,671,o),
(580,691,cs),
(560,711,o),
(532,723,o),
(501,723,cs),
(270,723,l),
(270,643,l),
(226,643,o),
(185,625,o),
(156,596,cs),
(127,567,o),
(109,526,o),
(109,482,cs),
(109,438,o),
(127,397,o),
(156,368,cs),
(185,339,o),
(226,321,o),
(270,321,cs),
(431,321,ls),
(454,321,o),
(471,304,o),
(471,281,cs),
(471,258,o),
(454,241,o),
(431,241,cs),
(169,241,ls),
(136,241,o),
(106,228,o),
(84,206,cs),
(62,184,o),
(48,153,o),
(48,120,cs),
(48,87,o),
(62,58,o),
(84,36,cs),
(106,14,o),
(136,0,o),
(169,0,cs)
);
}
);
width = 667;
}
);
note = s;
unicode = 115;
},
{
glyphname = t;
lastChange = "2024-06-06 21:54:33 +0000";
layers = (
{
layerId = m01;
shapes = (
{
closed = 1;
nodes = (
(497,723,l),
(34,723,l),
(34,683,ls),
(34,634,o),
(54,588,o),
(87,555,cs),
(120,522,o),
(166,502,o),
(215,502,cs),
(255,502,l),
(255,241,ls),
(255,174,o),
(282,114,o),
(326,71,cs),
(370,27,o),
(430,0,o),
(497,0,c)
);
}
);
width = 553;
}
);
note = t;
unicode = 116;
},
{
glyphname = u;
lastChange = "2024-06-06 21:54:33 +0000";
layers = (
{
layerId = m01;
shapes = (
{
closed = 1;
nodes = (
(621,0,l),
(621,522,ls),
(621,578,o),
(598,628,o),
(562,664,cs),
(526,700,o),
(476,723,o),
(420,723,c),
(420,261,l),
(279,261,l),
(279,613,ls),
(279,644,o),
(266,671,o),
(246,691,cs),
(226,711,o),
(199,723,o),
(168,723,cs),
(137,723,o),
(110,711,o),
(90,691,cs),
(70,671,o),
(57,644,o),
(57,613,cs),
(57,241,ls),
(57,174,o),
(84,114,o),
(128,71,cs),
(172,27,o),
(232,0,o),
(299,0,cs)
);
}
);
width = 675;
}
);
note = u;
unicode = 117;
},
{
glyphname = v;
lastChange = "2024-06-06 21:54:33 +0000";
layers = (
{
layerId = m01;
shapes = (
{
closed = 1;
nodes = (
(420,68,o),
(491,151,o),
(541,247,cs),
(591,343,o),
(618,452,o),
(618,568,cs),
(618,730,l),
(557,730,o),
(500,705,o),
(460,665,cs),
(419,624,o),
(394,568,o),
(394,507,cs),
(394,202,ls),
(394,167,o),
(368,141,o),
(333,141,cs),
(298,141,o),
(272,167,o),
(272,202,cs),
(272,507,ls),
(272,568,o),
(247,624,o),
(207,665,cs),
(166,705,o),
(109,730,o),
(48,730,c),
(48,568,ls),
(48,452,o),
(76,343,o),
(126,247,cs),
(176,151,o),
(246,68,o),
(333,4,c)
);
}
);
width = 670;
}
);
note = v;
unicode = 118;
},
{
glyphname = w;
lastChange = "2024-06-06 21:54:33 +0000";
layers = (
{
layerId = m01;
shapes = (
{
closed = 1;
nodes = (
(420,0,o),
(489,31,o),
(541,83,cs),
(592,134,o),
(623,204,o),
(623,281,cs),
(623,643,ls),
(623,688,o),
(587,724,o),
(543,724,cs),
(498,724,o),
(462,688,o),
(462,643,cs),
(462,342,ls),
(462,319,o),
(445,301,o),
(422,301,cs),
(399,301,o),
(382,319,o),
(382,342,cs),
(382,422,ls),
(382,445,o),
(364,462,o),
(341,462,cs),
(318,462,o),
(301,445,o),
(301,422,cs),
(301,342,ls),
(301,319,o),
(284,301,o),
(261,301,cs),
(238,301,o),
(220,319,o),
(220,342,cs),
(220,643,ls),
(220,688,o),
(184,724,o),
(140,724,cs),
(95,724,o),
(59,688,o),
(59,643,cs),
(59,281,ls),
(59,204,o),
(91,134,o),
(142,83,cs),
(193,31,o),
(264,0,o),
(341,0,cs)
);
}
);
width = 683;
}
);
note = w;
unicode = 119;
},
{
glyphname = x;
lastChange = "2024-06-06 21:54:33 +0000";
layers = (
{
layerId = m01;
shapes = (
{
closed = 1;
nodes = (
(305,0,l),
(305,241,ls),
(305,264,o),
(322,281,o),
(345,281,cs),
(368,281,o),
(385,264,o),
(385,241,cs),
(385,0,l),
(627,0,l),
(627,201,ls),
(627,234,o),
(614,265,o),
(592,287,cs),
(570,309,o),
(539,322,o),
(506,322,cs),
(466,322,ls),
(443,322,o),
(425,339,o),
(425,362,cs),
(425,385,o),
(443,402,o),
(466,402,cs),
(506,402,ls),
(539,402,o),
(570,416,o),
(592,438,cs),
(614,460,o),
(627,490,o),
(627,523,cs),
(627,724,l),
(506,724,ls),
(473,724,o),
(443,711,o),
(421,689,cs),
(399,667,o),
(385,636,o),
(385,603,cs),
(385,462,ls),
(385,439,o),
(368,422,o),
(345,422,cs),
(322,422,o),
(305,439,o),
(305,462,cs),
(305,603,ls),
(305,636,o),
(292,667,o),
(270,689,cs),
(248,711,o),
(217,724,o),
(184,724,cs),
(63,724,l),
(63,523,ls),
(63,490,o),
(77,460,o),
(99,438,cs),
(121,416,o),
(151,402,o),
(184,402,cs),
(224,402,ls),
(247,402,o),
(264,385,o),
(264,362,cs),
(264,339,o),
(247,322,o),
(224,322,cs),
(184,322,ls),
(151,322,o),
(121,309,o),
(99,287,cs),
(77,265,o),
(63,234,o),
(63,201,cs),
(63,0,l)
);
}
);
width = 683;
}
);
note = x;
unicode = 120;
},
{
glyphname = y;
lastChange = "2024-06-06 21:54:33 +0000";
layers = (
{
layerId = m01;
shapes = (
{
closed = 1;
nodes = (
(505,0,ls),
(538,0,o),
(569,14,o),
(591,36,cs),
(613,58,o),
(626,87,o),
(626,120,cs),
(626,724,l),
(385,724,l),
(385,442,l),
(284,442,l),
(284,724,l),
(62,724,l),
(62,442,ls),
(62,409,o),
(76,380,o),
(98,358,cs),
(120,336,o),
(150,322,o),
(183,322,cs),
(385,322,l),
(385,241,l),
(183,241,ls),
(150,241,o),
(120,228,o),
(98,206,cs),
(76,184,o),
(62,153,o),
(62,120,cs),
(62,87,o),
(76,58,o),
(98,36,cs),
(120,14,o),
(150,0,o),
(183,0,cs)
);
}
);
width = 691;
}
);
note = y;
unicode = 121;
},
{
glyphname = z;
lastChange = "2024-06-06 21:54:33 +0000";
layers = (
{
layerId = m01;
shapes = (
{
closed = 1;
nodes = (
(626,0,l),
(626,141,ls),
(626,180,o),
(611,215,o),
(585,240,cs),
(559,265,o),
(524,281,o),
(485,281,cs),
(273,281,l),
(508,516,l),
(511,520,l),
(532,541,o),
(545,571,o),
(545,603,cs),
(545,624,o),
(540,645,o),
(529,664,cs),
(508,700,o),
(469,724,o),
(424,724,cs),
(62,724,l),
(62,603,ls),
(62,570,o),
(76,540,o),
(98,518,cs),
(120,496,o),
(150,482,o),
(183,482,cs),
(347,482,l),
(117,253,l),
(117,252,l),
(116,252,o),
(116,252,o),
(116,251,c),
(83,226,o),
(62,186,o),
(62,141,cs),
(62,102,o),
(78,66,o),
(103,41,cs),
(128,16,o),
(164,0,o),
(203,0,cs)
);
}
);
width = 675;
}
);
note = z;
unicode = 122;
},
{
glyphname = zero;
lastChange = "2024-06-06 21:54:33 +0000";
layers = (
{
layerId = m01;
shapes = (
{
closed = 1;
nodes = (
(467,0,ls),
(511,0,o),
(552,18,o),
(581,47,cs),
(610,76,o),
(628,117,o),
(628,161,cs),
(628,563,ls),
(628,607,o),
(610,648,o),
(581,677,cs),
(552,706,o),
(511,724,o),
(467,724,cs),
(225,724,ls),
(181,724,o),
(140,706,o),
(111,677,cs),
(82,648,o),
(64,607,o),
(64,563,cs),
(64,161,ls),
(64,117,o),
(82,76,o),
(111,47,cs),
(140,18,o),
(181,0,o),
(225,0,cs)
);
},
{
closed = 1;
nodes = (
(302,201,o),
(261,219,o),
(232,248,cs),
(203,277,o),
(185,318,o),
(185,362,cs),
(185,406,o),
(203,447,o),
(232,476,cs),
(261,505,o),
(302,523,o),
(346,523,cs),
(390,523,o),
(431,505,o),
(460,476,cs),
(489,447,o),
(507,406,o),
(507,362,cs),
(507,318,o),
(489,277,o),
(460,248,cs),
(431,219,o),
(390,201,o),
(346,201,cs)
);
},
{
closed = 1;
nodes = (
(391,281,o),
(427,317,o),
(427,362,cs),
(427,406,o),
(391,442,o),
(346,442,cs),
(302,442,o),
(265,406,o),
(265,362,cs),
(265,317,o),
(302,281,o),
(346,281,cs)
);
}
);
width = 683;
}
);
note = zero;
unicode = 48;
},
{
glyphname = one;
lastChange = "2024-06-06 21:54:33 +0000";
layers = (
{
layerId = m01;
shapes = (
{
closed = 1;
nodes = (
(186,0,ls),
(237,0,o),
(281,20,o),
(314,53,cs),
(347,86,o),
(367,132,o),
(367,181,cs),
(367,563,ls),
(367,607,o),
(349,648,o),
(320,677,cs),
(291,706,o),
(250,724,o),
(206,724,cs),
(162,724,o),
(121,706,o),
(92,677,cs),
(63,648,o),
(45,607,o),
(45,563,cs),
(45,510,o),
(79,466,o),
(126,449,c),
(126,0,l)
);
}
);
width = 423;
}
);
note = one;
unicode = 49;
},
{
glyphname = two;
lastChange = "2024-06-06 21:54:33 +0000";
layers = (
{
layerId = m01;
shapes = (
{
closed = 1;
nodes = (
(621,0,l),
(621,56,o),
(598,106,o),
(562,142,cs),
(526,178,o),
(476,201,o),
(420,201,cs),
(280,201,l),
(285,236,o),
(302,266,o),
(327,287,cs),
(352,308,o),
(384,322,o),
(420,322,cs),
(476,322,o),
(526,345,o),
(562,381,cs),
(598,417,o),
(621,467,o),
(621,523,cs),
(621,579,o),
(598,629,o),
(562,665,cs),
(526,701,o),
(476,724,o),
(420,724,cs),
(178,724,ls),
(145,724,o),
(115,711,o),
(93,689,cs),
(71,667,o),
(57,636,o),
(57,603,cs),
(57,570,o),
(71,541,o),
(93,519,cs),
(115,497,o),
(145,483,o),
(178,483,cs),
(400,483,ls),
(423,483,o),
(440,466,o),
(440,443,cs),
(440,420,o),
(423,402,o),
(400,402,cs),
(305,402,o),
(220,364,o),
(158,302,cs),
(96,240,o),
(57,155,o),
(57,60,cs),
(57,0,l)
);
}
);
width = 675;
}
);
note = two;
unicode = 50;
},
{
glyphname = three;
lastChange = "2024-06-06 21:54:33 +0000";
layers = (
{
layerId = m01;
shapes = (
{
closed = 1;
nodes = (
(460,0,ls),
(504,0,o),
(545,18,o),
(574,47,cs),
(603,76,o),
(622,117,o),
(622,161,cs),
(622,205,o),
(603,246,o),
(574,275,cs),
(545,304,o),
(504,322,o),
(460,322,cs),
(437,322,o),
(420,339,o),
(420,362,cs),
(420,385,o),
(437,402,o),
(460,402,cs),
(504,402,o),
(545,420,o),
(574,449,cs),
(603,478,o),
(622,519,o),
(622,563,cs),
(622,607,o),
(603,648,o),
(574,677,cs),
(545,706,o),
(504,724,o),
(460,724,cs),
(168,724,ls),
(137,724,o),
(110,712,o),
(90,692,cs),
(70,672,o),
(58,644,o),
(58,613,cs),
(58,582,o),
(70,555,o),
(90,535,cs),
(110,515,o),
(137,503,o),
(168,503,cs),
(299,503,ls),
(322,503,o),
(340,486,o),
(340,463,cs),
(340,440,o),
(322,422,o),
(299,422,cs),
(138,422,ls),
(105,422,o),
(78,395,o),
(78,362,cs),
(78,329,o),
(105,302,o),
(138,302,cs),
(299,302,ls),
(322,302,o),
(340,285,o),
(340,262,cs),
(340,239,o),
(322,221,o),
(299,221,cs),
(168,221,ls),
(137,221,o),
(110,209,o),
(90,189,cs),
(70,169,o),
(58,142,o),
(58,111,cs),
(58,80,o),
(70,53,o),
(90,33,cs),
(110,13,o),
(137,0,o),
(168,0,cs)
);
}
);
width = 675;
}
);
note = three;
unicode = 51;
},
{
glyphname = four;
lastChange = "2024-06-06 21:54:33 +0000";
layers = (
{
layerId = m01;
shapes = (
{
closed = 1;
nodes = (
(526,0,o),
(553,13,o),
(573,33,cs),
(593,53,o),
(606,80,o),
(606,111,cs),
(606,613,ls),
(606,644,o),
(593,672,o),
(573,692,cs),
(553,712,o),
(526,724,o),
(495,724,cs),
(464,724,o),
(437,712,o),
(417,692,cs),
(397,672,o),
(384,644,o),
(384,613,cs),
(384,402,ls),
(384,379,o),
(367,362,o),
(344,362,cs),
(321,362,o),
(304,379,o),
(304,402,cs),
(304,593,ls),
(304,629,o),
(289,662,o),
(266,686,cs),
(242,710,o),
(209,724,o),
(173,724,cs),
(137,724,o),
(104,710,o),
(81,686,cs),
(57,662,o),
(42,629,o),
(42,593,cs),
(42,372,ls),
(42,336,o),
(57,303,o),
(81,280,cs),
(104,256,o),
(137,241,o),
(173,241,cs),
(384,241,l),
(384,111,ls),
(384,80,o),
(397,53,o),
(417,33,cs),
(437,13,o),
(464,0,o),
(495,0,cs)
);
}
);
width = 659;
}
);
note = four;
unicode = 52;
},
{
glyphname = five;
lastChange = "2024-06-06 21:54:33 +0000";
layers = (
{
layerId = m01;
shapes = (
{
closed = 1;
nodes = (
(416,0,ls),
(475,0,o),
(528,23,o),
(566,62,cs),
(604,101,o),
(627,154,o),
(627,211,cs),
(627,270,o),
(604,323,o),
(566,361,cs),
(528,399,o),
(475,422,o),
(416,422,cs),
(204,422,ls),
(181,422,o),
(164,440,o),
(164,463,cs),
(164,486,o),
(181,503,o),
(204,503,cs),
(365,503,ls),
(426,503,o),
(482,528,o),
(522,568,cs),
(562,608,o),
(587,663,o),
(587,724,c),
(63,724,l),
(63,302,l),
(396,302,ls),
(423,302,o),
(446,279,o),
(446,251,cs),
(446,224,o),
(423,201,o),
(396,201,cs),
(265,201,ls),
(209,201,o),
(159,178,o),
(123,142,cs),
(86,106,o),
(63,56,o),
(63,0,c)
);
}
);
width = 683;
}
);
note = five;
unicode = 53;
},
{
glyphname = six;
lastChange = "2024-06-06 21:54:33 +0000";
layers = (
{
layerId = m01;
shapes = (
{
closed = 1;
nodes = (
(423,0,ls),
(479,0,o),
(529,23,o),
(566,59,cs),
(602,95,o),
(625,145,o),
(625,201,cs),
(625,257,o),
(602,307,o),
(566,343,cs),
(529,379,o),
(479,402,o),
(423,402,cs),
(343,402,l),
(343,724,l),
(282,724,ls),
(221,724,o),
(166,699,o),
(126,659,cs),
(86,619,o),
(61,564,o),
(61,503,cs),
(61,201,ls),
(61,145,o),
(84,95,o),
(120,59,cs),
(156,23,o),
(206,0,o),
(262,0,cs)
);
},
{
closed = 1;
nodes = (
(360,121,o),
(343,138,o),
(343,161,cs),
(343,322,l),
(423,322,l),
(423,161,ls),
(423,138,o),
(406,121,o),
(383,121,cs)
);
}
);
width = 659;
}
);
note = six;
unicode = 54;
},
{
glyphname = seven;
lastChange = "2024-06-06 21:54:33 +0000";
layers = (
{
layerId = m01;
shapes = (
{
closed = 1;
nodes = (
(167,0,ls),
(292,0,o),
(406,51,o),
(488,133,cs),
(570,215,o),
(620,328,o),
(620,453,cs),
(620,724,l),
(56,724,l),
(56,668,o),
(79,618,o),
(115,582,cs),
(151,546,o),
(201,523,o),
(257,523,cs),
(419,523,l),
(419,377,l),
(343,349,o),
(277,297,o),
(231,232,cs),
(185,167,o),
(157,87,o),
(157,0,c)
);
}
);
width = 667;
}
);
note = seven;
unicode = 55;
},
{
glyphname = eight;
lastChange = "2024-06-06 21:54:33 +0000";
layers = (
{
layerId = m01;
shapes = (
{
closed = 1;
nodes = (
(371,0,ls),
(438,0,o),
(498,27,o),
(542,71,cs),
(585,114,o),
(612,174,o),
(612,241,cs),
(612,313,o),
(581,377,o),
(532,421,c),
(532,583,ls),
(532,622,o),
(516,658,o),
(491,683,cs),
(466,708,o),
(430,724,o),
(391,724,cs),
(270,724,ls),
(231,724,o),
(195,708,o),
(170,683,cs),
(145,658,o),
(129,622,o),
(129,583,cs),
(129,421,l),
(80,377,o),
(48,313,o),
(48,241,cs),
(48,174,o),
(75,114,o),
(119,71,cs),
(163,27,o),
(223,0,o),
(290,0,cs)
);
},
{
closed = 1;
nodes = (
(307,101,o),
(290,118,o),
(290,141,cs),
(290,362,l),
(371,362,l),
(371,141,ls),
(371,118,o),
(353,101,o),
(330,101,cs)
);
},
{
closed = 1;
nodes = (
(290,603,ls),
(290,626,o),
(307,644,o),
(330,644,cs),
(353,644,o),
(371,626,o),
(371,603,cs),
(371,443,l),
(290,443,l)
);
}
);
width = 659;
}
);
note = eight;
unicode = 56;
},
{
glyphname = nine;
lastChange = "2024-06-06 21:54:33 +0000";
layers = (
{
layerId = m01;
shapes = (
{
closed = 1;
nodes = (
(380,0,ls),
(441,0,o),
(496,25,o),
(536,65,cs),
(576,105,o),
(601,160,o),
(601,221,cs),
(601,522,ls),
(601,578,o),
(578,628,o),
(542,664,cs),
(506,700,o),
(456,723,o),
(400,723,cs),
(239,723,ls),
(183,723,o),
(132,700,o),
(96,664,cs),
(60,628,o),
(37,578,o),
(37,522,cs),
(37,466,o),
(60,416,o),
(96,380,cs),
(132,344,o),
(183,321,o),
(239,321,cs),
(319,321,l),
(319,0,l)
);
},
{
closed = 1;
nodes = (
(239,563,ls),
(239,586,o),
(256,603,o),
(279,603,cs),
(302,603,o),
(319,586,o),
(319,563,cs),
(319,402,l),
(239,402,l)
);
}
);
width = 659;
}
);
note = nine;
unicode = 57;
},
{
glyphname = asterisk;
lastChange = "2024-06-06 21:54:33 +0000";
layers = (
{
layerId = m01;
shapes = (
{
closed = 1;
nodes = (
(438,0,o),
(465,27,o),
(465,60,cs),
(465,216,l),
(575,106,ls),
(587,94,o),
(601,88,o),
(618,88,cs),
(651,88,o),
(679,115,o),
(679,148,cs),
(679,165,o),
(673,179,o),
(661,191,cs),
(550,301,l),
(707,301,ls),
(740,301,o),
(767,327,o),
(767,362,cs),
(767,395,o),
(740,422,o),
(707,422,cs),
(550,422,l),
(661,532,ls),
(673,544,o),
(679,558,o),
(679,575,cs),
(679,608,o),
(651,635,o),
(618,635,cs),
(601,635,o),
(587,629,o),
(575,618,cs),
(465,507,l),
(465,663,ls),
(465,698,o),
(438,724,o),
(405,724,cs),
(370,724,o),
(344,698,o),
(344,663,cs),
(344,507,l),
(234,618,ls),
(222,629,o),
(208,635,o),
(191,635,cs),
(158,635,o),
(131,608,o),
(131,575,cs),
(131,558,o),
(137,544,o),
(148,532,cs),
(259,422,l),
(103,422,ls),
(68,422,o),
(42,395,o),
(42,362,cs),
(42,327,o),
(68,301,o),
(103,301,cs),
(259,301,l),
(148,191,ls),
(137,179,o),
(131,165,o),
(131,148,cs),
(131,115,o),
(158,88,o),
(191,88,cs),
(208,88,o),
(222,94,o),
(234,106,cs),
(344,216,l),
(344,60,ls),
(344,27,o),
(370,0,o),
(405,0,cs)
);
},
{
closed = 1;
nodes = (
(360,281,o),
(324,317,o),
(324,362,cs),
(324,406,o),
(360,442,o),
(405,442,cs),
(449,442,o),
(485,406,o),
(485,362,cs),
(485,317,o),
(449,281,o),
(405,281,cs)
);
}
);
width = 797;
}
);
note = asterisk;
unicode = 42;
},
{
glyphname = backslash;
lastChange = "2024-06-06 21:54:33 +0000";
layers = (
{
layerId = m01;
shapes = (
{
closed = 1;
nodes = (
(557,0,o),
(594,36,o),
(594,80,cs),
(594,161,ls),
(594,183,o),
(586,202,o),
(570,218,cs),
(191,596,l),
(191,643,ls),
(191,688,o),
(155,724,o),
(110,724,cs),
(66,724,o),
(30,688,o),
(30,643,cs),
(30,563,ls),
(30,540,o),
(38,521,o),
(53,506,cs),
(432,128,l),
(432,80,ls),
(432,36,o),
(469,0,o),
(513,0,cs)
);
}
);
width = 618;
}
);
note = backslash;
unicode = 92;
},
{
glyphname = colon;
lastChange = "2024-06-06 21:54:33 +0000";
layers = (
{
layerId = m01;
shapes = (
{
closed = 1;
nodes = (
(180,482,o),
(216,518,o),
(216,563,cs),
(216,607,o),
(180,643,o),
(135,643,cs),
(91,643,o),
(55,607,o),
(55,563,cs),
(55,518,o),
(91,482,o),
(135,482,cs)
);
},
{
closed = 1;
nodes = (
(180,161,o),
(216,197,o),
(216,241,cs),
(216,286,o),
(180,322,o),
(135,322,cs),
(91,322,o),
(55,286,o),
(55,241,cs),
(55,197,o),
(91,161,o),
(135,161,cs)
);
}
);
width = 268;
}
);
note = colon;
unicode = 58;
},
{
glyphname = comma;
lastChange = "2024-06-06 21:54:33 +0000";
layers = (
{
layerId = m01;
shapes = (
{
closed = 1;
nodes = (
(166,0,o),
(202,36,o),
(202,80,cs),
(202,160,ls),
(202,205,o),
(166,241,o),
(121,241,cs),
(77,241,o),
(41,205,o),
(41,160,cs),
(41,116,o),
(77,80,o),
(121,80,c),
(121,0,l)
);
}
);
width = 252;
}
);
note = comma;
unicode = 44;
},
{
glyphname = exclam;
lastChange = "2024-06-06 21:54:33 +0000";
layers = (
{
layerId = m01;
shapes = (
{
closed = 1;
nodes = (
(296,242,l),
(296,604,ls),
(296,637,o),
(283,667,o),
(261,689,cs),
(239,711,o),
(208,724,o),
(175,724,cs),
(142,724,o),
(112,711,o),
(90,689,cs),
(68,667,o),
(54,637,o),
(54,604,cs),
(54,242,l)
);
},
{
closed = 1;
nodes = (
(219,0,o),
(255,36,o),
(255,81,cs),
(255,125,o),
(219,161,o),
(175,161,cs),
(130,161,o),
(94,125,o),
(94,81,cs),
(94,36,o),
(130,0,o),
(175,0,cs)
);
}
);
width = 350;
}
);
note = exclam;
unicode = 33;
},
{
glyphname = numbersign;
lastChange = "2024-06-06 21:54:33 +0000";
layers = (
{
layerId = m01;
shapes = (
{
closed = 1;
nodes = (
(334,0,o),
(365,32,o),
(365,71,cs),
(365,181,l),
(446,181,l),
(446,71,ls),
(446,32,o),
(477,0,o),
(516,0,cs),
(555,0,o),
(587,32,o),
(587,71,cs),
(587,181,l),
(698,181,ls),
(737,181,o),
(768,213,o),
(768,252,cs),
(768,291,o),
(737,322,o),
(698,322,cs),
(587,322,l),
(587,403,l),
(698,403,ls),
(737,403,o),
(768,434,o),
(768,473,cs),
(768,512,o),
(737,543,o),
(698,543,cs),
(587,543,l),
(587,654,ls),
(587,693,o),
(555,724,o),
(516,724,cs),
(477,724,o),
(446,693,o),
(446,654,cs),
(446,543,l),
(365,543,l),
(365,654,ls),
(365,693,o),
(334,724,o),
(295,724,cs),
(256,724,o),
(224,693,o),
(224,654,cs),
(224,543,l),
(114,543,ls),
(75,543,o),
(43,512,o),
(43,473,cs),
(43,434,o),
(75,403,o),
(114,403,cs),
(224,403,l),
(224,322,l),
(114,322,ls),
(75,322,o),
(43,291,o),
(43,252,cs),
(43,213,o),
(75,181,o),
(114,181,cs),
(224,181,l),
(224,71,ls),
(224,32,o),
(256,0,o),
(295,0,cs)
);
},
{
closed = 1;
nodes = (
(365,403,l),
(446,403,l),
(446,322,l),
(365,322,l)
);
}
);
width = 805;
}
);
note = numbersign;
unicode = 35;
},
{
glyphname = period;
lastChange = "2024-06-06 21:54:33 +0000";
layers = (
{
layerId = m01;
shapes = (
{
closed = 1;
nodes = (
(181,-1,o),
(206,11,o),
(225,29,cs),
(244,47,o),
(255,72,o),
(255,100,cs),
(255,128,o),
(244,153,o),
(225,172,cs),
(206,191,o),
(181,202,o),
(153,202,cs),
(125,202,o),
(100,191,o),
(81,172,cs),
(62,153,o),
(51,128,o),
(51,100,cs),
(51,72,o),
(62,47,o),
(81,29,cs),
(100,11,o),
(125,-1,o),
(153,-1,cs)
);
}
);
width = 304;
}
);
note = period;
unicode = 46;
},
{
glyphname = question;
lastChange = "2024-06-06 21:54:33 +0000";
layers = (
{
layerId = m01;
shapes = (
{
closed = 1;
nodes = (
(349,242,o),
(385,278,o),
(385,322,c),
(405,322,ls),
(461,322,o),
(511,345,o),
(548,381,cs),
(584,417,o),
(607,467,o),
(607,523,cs),
(607,579,o),
(584,629,o),
(548,665,cs),
(511,701,o),
(461,724,o),
(405,724,cs),
(163,724,ls),
(130,724,o),
(101,711,o),
(79,689,cs),
(57,667,o),
(43,637,o),
(43,604,cs),
(43,571,o),
(57,541,o),
(79,519,cs),
(101,497,o),
(130,483,o),
(163,483,cs),
(405,483,ls),
(428,483,o),
(445,466,o),
(445,443,cs),
(445,420,o),
(428,403,o),
(405,403,cs),
(304,403,ls),
(260,403,o),
(224,367,o),
(224,322,cs),
(224,278,o),
(260,242,o),
(304,242,cs)
);
},
{
closed = 1;
nodes = (
(349,0,o),
(385,36,o),
(385,81,cs),
(385,125,o),
(349,161,o),
(304,161,cs),
(260,161,o),
(224,125,o),
(224,81,cs),
(224,36,o),
(260,0,o),
(304,0,cs)
);
}
);
width = 642;
}
);
note = question;
unicode = 63;
},
{
glyphname = quotedbl;
lastChange = "2024-06-06 21:54:33 +0000";
layers = (
{
layerId = m01;
shapes = (
{
closed = 1;
nodes = (
(355,422,o),
(381,449,o),
(381,482,cs),
(381,583,ls),
(381,616,o),
(355,643,o),
(320,643,cs),
(287,643,o),
(260,616,o),
(260,583,cs),
(260,482,ls),
(260,449,o),
(287,422,o),
(320,422,cs)
);
},
{
closed = 1;
nodes = (
(152,422,o),
(179,449,o),
(179,482,cs),
(179,583,ls),
(179,616,o),
(152,643,o),
(119,643,cs),
(86,643,o),
(59,616,o),
(59,583,cs),
(59,482,ls),
(59,449,o),
(86,422,o),
(119,422,cs)
);
}
);
width = 439;
}
);
note = quotedbl;
unicode = 34;
},
{
glyphname = quotesingle;
lastChange = "2024-06-06 21:54:33 +0000";
layers = (
{
layerId = m01;
shapes = (
{
closed = 1;
nodes = (
(150,422,o),
(178,449,o),
(178,482,cs),
(178,583,ls),
(178,616,o),
(150,643,o),
(117,643,cs),
(84,643,o),
(57,616,o),
(57,583,cs),
(57,482,ls),
(57,449,o),
(84,422,o),
(117,422,cs)
);
}
);
width = 228;
}
);
note = quotesingle;
unicode = 39;
},
{
glyphname = semicolon;
lastChange = "2024-06-06 21:54:33 +0000";
layers = (
{
layerId = m01;
shapes = (
{
closed = 1;
nodes = (
(169,80,o),
(205,116,o),
(205,161,cs),
(205,241,ls),
(205,286,o),
(169,322,o),
(124,322,cs),
(80,322,o),
(44,286,o),
(44,241,cs),
(44,197,o),
(80,161,o),
(124,161,c),
(124,80,l)
);
},
{
closed = 1;
nodes = (
(169,483,o),
(205,519,o),
(205,563,cs),
(205,607,o),
(169,643,o),
(124,643,cs),
(80,643,o),
(44,607,o),
(44,563,cs),
(44,519,o),
(80,483,o),
(124,483,cs)
);
}
);
width = 260;
}
);
note = semicolon;
unicode = 59;
},
{
glyphname = slash;
lastChange = "2024-06-06 21:54:33 +0000";
layers = (
{
layerId = m01;
shapes = (
{
closed = 1;
nodes = (
(152,0,o),
(188,36,o),
(188,80,cs),
(188,128,l),
(568,506,ls),
(583,521,o),
(591,540,o),
(591,563,cs),
(591,643,ls),
(591,688,o),
(555,724,o),
(511,724,cs),
(466,724,o),
(430,688,o),
(430,643,cs),
(430,596,l),
(51,218,ls),
(35,202,o),
(27,183,o),
(27,161,cs),
(27,80,ls),
(27,36,o),
(63,0,o),
(108,0,cs)
);
}
);
width = 618;
}
);
note = slash;
unicode = 47;
},
{
glyphname = underscore;
lastChange = "2024-06-06 21:54:33 +0000";
layers = (
{
layerId = m01;
shapes = (
{
closed = 1;
nodes = (
(543,-1,ls),
(588,-1,o),
(624,35,o),
(624,79,cs),
(624,123,o),
(588,159,o),
(543,159,cs),
(141,159,ls),
(96,159,o),
(60,123,o),
(60,79,cs),
(60,35,o),
(96,-1,o),
(141,-1,cs)
);
}
);
width = 675;
}
);
note = underscore;
unicode = 95;
},
{
glyphname = braceleft;
lastChange = "2024-06-06 21:54:33 +0000";
layers = (
{
layerId = m01;
shapes = (
{
closed = 1;
nodes = (
(339,0,o),
(375,36,o),
(375,80,cs),
(375,125,o),
(339,161,o),
(294,161,c),
(294,282,l),
(250,282,o),
(214,318,o),
(214,362,cs),
(214,406,o),
(250,442,o),
(294,442,c),
(294,563,l),
(339,563,o),
(375,599,o),
(375,643,cs),
(375,688,o),
(339,724,o),
(294,724,cs),
(255,724,o),
(219,708,o),
(194,683,cs),
(169,658,o),
(153,622,o),
(153,583,cs),
(153,483,l),
(120,483,o),
(90,470,o),
(68,448,cs),
(46,426,o),
(32,395,o),
(32,362,cs),
(32,329,o),
(46,299,o),
(68,277,cs),
(90,255,o),
(120,241,o),
(153,241,c),
(153,141,ls),
(153,102,o),
(169,66,o),
(194,41,cs),
(219,16,o),
(255,0,o),
(294,0,cs)
);
}
);
width = 431;
}
);
note = braceleft;
unicode = 123;
},
{
glyphname = braceright;
lastChange = "2024-06-06 21:54:33 +0000";
layers = (
{
layerId = m01;
shapes = (
{
closed = 1;
nodes = (
(177,0,o),
(213,16,o),
(238,41,cs),
(263,66,o),
(279,102,o),
(279,141,cs),
(279,241,l),
(312,241,o),
(343,255,o),
(365,277,cs),
(387,299,o),
(400,329,o),
(400,362,cs),
(400,395,o),
(387,426,o),
(365,448,cs),
(343,470,o),
(312,483,o),
(279,483,c),
(279,583,ls),
(279,622,o),
(263,658,o),
(238,683,cs),
(213,708,o),
(177,724,o),
(138,724,cs),
(94,724,o),
(58,688,o),
(58,643,cs),
(58,599,o),
(94,563,o),
(138,563,c),
(138,442,l),
(183,442,o),
(219,406,o),
(219,362,cs),
(219,318,o),
(183,282,o),
(138,282,c),
(138,161,l),
(94,161,o),
(58,125,o),
(58,80,cs),
(58,36,o),
(94,0,o),
(138,0,cs)
);
}
);
width = 431;
}
);
note = braceright;
unicode = 125;
},
{
glyphname = bracketleft;
lastChange = "2024-06-06 21:54:33 +0000";
layers = (
{
layerId = m01;
shapes = (
{
closed = 1;
nodes = (
(203,0,ls),
(248,0,o),
(284,36,o),
(284,80,cs),
(284,125,o),
(248,161,o),
(203,161,c),
(203,563,l),
(248,563,o),
(284,599,o),
(284,643,cs),
(284,688,o),
(248,724,o),
(203,724,cs),
(63,724,l),
(63,0,l)
);
}
);
width = 333;
}
);
note = bracketleft;
unicode = 91;
},
{
glyphname = bracketright;
lastChange = "2024-06-06 21:54:33 +0000";
layers = (
{
layerId = m01;
shapes = (
{
closed = 1;
nodes = (
(281,0,l),
(281,724,l),
(140,724,ls),
(95,724,o),
(59,688,o),
(59,643,cs),
(59,599,o),
(95,563,o),
(140,563,c),
(140,161,l),
(95,161,o),
(59,125,o),
(59,80,cs),
(59,36,o),
(95,0,o),
(140,0,cs)
);
}
);
width = 333;
}
);
note = bracketright;
unicode = 93;
},
{
glyphname = parenleft;
lastChange = "2024-06-06 21:54:33 +0000";
layers = (
{
layerId = m01;
shapes = (
{
closed = 1;
nodes = (
(244,0,o),
(280,36,o),
(280,80,cs),
(280,125,o),
(244,161,o),
(200,161,c),
(200,563,l),
(244,563,o),
(280,599,o),
(280,643,cs),
(280,688,o),
(244,724,o),
(200,724,cs),
(161,724,o),
(125,708,o),
(100,683,cs),
(75,658,o),
(59,622,o),
(59,583,cs),
(59,140,ls),
(59,101,o),
(75,66,o),
(100,41,cs),
(125,16,o),
(161,0,o),
(200,0,cs)
);
}
);
width = 333;
}
);
note = parenleft;
unicode = 40;
},
{
glyphname = parenright;
lastChange = "2024-06-06 21:54:33 +0000";
layers = (
{
layerId = m01;
shapes = (
{
closed = 1;
nodes = (
(181,0,o),
(217,16,o),
(242,41,cs),
(267,66,o),
(283,101,o),
(283,140,cs),
(283,583,ls),
(283,622,o),
(267,658,o),
(242,683,cs),
(217,708,o),
(181,724,o),
(142,724,cs),
(98,724,o),
(62,688,o),
(62,643,cs),
(62,599,o),
(98,563,o),
(142,563,c),
(142,161,l),
(98,161,o),
(62,125,o),
(62,80,cs),
(62,36,o),
(98,0,o),
(142,0,cs)
);
}
);
width = 341;
}
);
note = parenright;
unicode = 41;
},
{
glyphname = hyphen;
lastChange = "2024-06-06 21:54:33 +0000";
layers = (
{
layerId = m01;
shapes = (
{
closed = 1;
nodes = (
(378,281,ls),
(423,281,o),
(459,317,o),
(459,362,cs),
(459,406,o),
(423,442,o),
(378,442,cs),
(136,442,ls),
(92,442,o),
(56,406,o),
(56,362,cs),
(56,317,o),
(92,281,o),
(136,281,cs)
);
}
);
width = 512;
}
);
note = hyphen;
unicode = 45;
},
{
glyphname = quotedblleft;
lastChange = "2024-06-06 21:54:33 +0000";
layers = (
{
layerId = m01;
shapes = (
{
closed = 1;
nodes = (
(379,482,l),
(423,482,o),
(459,518,o),
(459,563,cs),
(459,607,o),
(423,643,o),
(379,643,cs),
(334,643,o),
(298,607,o),
(298,563,cs),
(298,482,ls),
(298,438,o),
(334,402,o),
(379,402,c)
);
},
{
closed = 1;
nodes = (
(137,482,l),
(182,482,o),
(218,518,o),
(218,563,cs),
(218,607,o),
(182,643,o),
(137,643,cs),
(93,643,o),
(57,607,o),
(57,563,cs),
(57,482,ls),
(57,438,o),
(93,402,o),
(137,402,c)
);
}
);
width = 504;
}
);
note = quotedblleft;
unicode = 8220;
},
{
glyphname = quotedblright;
lastChange = "2024-06-06 21:54:33 +0000";
layers = (
{
layerId = m01;
shapes = (
{
closed = 1;
nodes = (
(419,402,o),
(455,438,o),
(455,482,cs),
(455,563,ls),
(455,607,o),
(419,643,o),
(374,643,cs),
(330,643,o),
(294,607,o),
(294,563,cs),
(294,518,o),
(330,482,o),
(374,482,c),
(374,402,l)
);
},
{
closed = 1;
nodes = (
(177,402,o),
(213,438,o),
(213,482,cs),
(213,563,ls),
(213,607,o),
(177,643,o),
(132,643,cs),
(88,643,o),
(52,607,o),
(52,563,cs),
(52,518,o),
(88,482,o),
(132,482,c),
(132,402,l)
);
}
);
width = 512;
}
);
note = quotedblright;
unicode = 8221;
},
{
glyphname = quoteleft;
lastChange = "2024-06-06 21:54:33 +0000";
layers = (
{
layerId = m01;
shapes = (
{
closed = 1;
nodes = (
(135,482,l),
(179,482,o),
(216,518,o),
(216,563,cs),
(216,607,o),
(179,643,o),
(135,643,cs),
(90,643,o),
(54,607,o),
(54,563,cs),
(54,482,ls),
(54,438,o),
(90,402,o),
(135,402,c)
);
}
);
width = 252;
}
);
note = quoteleft;
unicode = 8216;
},
{
glyphname = quoteright;
lastChange = "2024-06-06 21:54:33 +0000";
layers = (
{
layerId = m01;
shapes = (
{
closed = 1;
nodes = (
(166,403,o),
(202,439,o),
(202,483,cs),
(202,563,ls),
(202,608,o),
(166,644,o),
(121,644,cs),
(77,644,o),
(41,608,o),
(41,563,cs),
(41,519,o),
(77,483,o),
(121,483,c),
(121,403,l)
);
}
);
width = 252;
}
);
note = quoteright;
unicode = 8217;
},
{
glyphname = dollar;
lastChange = "2024-06-06 21:54:33 +0000";
layers = (
{
layerId = m01;
shapes = (
{
closed = 1;
nodes = (
(365,0,o),
(392,26,o),
(392,61,cs),
(392,81,l),
(452,81,ls),
(496,81,o),
(537,99,o),
(566,128,cs),
(595,157,o),
(614,198,o),
(614,242,cs),
(614,286,o),
(595,327,o),
(566,356,cs),
(537,385,o),
(496,403,o),
(452,403,cs),
(392,403,l),
(392,483,l),
(533,483,ls),
(578,483,o),
(614,519,o),
(614,563,cs),
(614,644,l),
(392,644,l),
(392,664,ls),
(392,697,o),
(365,724,o),
(332,724,cs),
(297,724,o),
(271,697,o),
(271,664,cs),
(271,644,l),
(211,644,ls),
(167,644,o),
(126,626,o),
(97,597,cs),
(68,568,o),
(50,527,o),
(50,483,cs),
(50,439,o),
(68,398,o),
(97,369,cs),
(126,340,o),
(167,322,o),
(211,322,cs),
(271,322,l),
(271,242,l),
(130,242,ls),
(86,242,o),
(50,206,o),
(50,161,cs),
(50,81,l),
(271,81,l),
(271,61,ls),
(271,26,o),
(297,0,o),
(332,0,cs)
);
},
{
closed = 1;
nodes = (
(188,403,o),
(171,420,o),
(171,443,cs),
(171,466,o),
(188,483,o),
(211,483,cs),
(271,483,l),
(271,403,l),
(211,403,ls)
);
},
{
closed = 1;
nodes = (
(392,322,l),
(452,322,ls),
(475,322,o),
(493,305,o),
(493,282,cs),
(493,259,o),
(475,242,o),
(452,242,cs),
(392,242,l)
);
}
);
width = 659;
}
);
note = dollar;
unicode = 36;
},
{
glyphname = asciitilde;
lastChange = "2024-06-06 21:54:33 +0000";
layers = (
{
layerId = m01;
shapes = (
{
closed = 1;
nodes = (
(163,221,o),
(189,233,o),
(207,251,cs),
(225,269,o),
(236,294,o),
(236,322,c),
(497,322,ls),
(525,322,o),
(551,334,o),
(569,352,cs),
(587,370,o),
(598,394,o),
(598,422,cs),
(598,450,o),
(587,476,o),
(569,494,cs),
(551,512,o),
(525,523,o),
(497,523,cs),
(469,523,o),
(445,512,o),
(427,494,cs),
(409,476,o),
(397,450,o),
(397,422,c),
(135,422,ls),
(107,422,o),
(82,411,o),
(64,393,cs),
(46,375,o),
(34,350,o),
(34,322,cs),
(34,294,o),
(46,269,o),
(64,251,cs),
(82,233,o),
(107,221,o),
(135,221,cs)
);
}
);
width = 634;
}
);
note = asciitilde;
unicode = 126;
},
{
glyphname = equal;
lastChange = "2024-06-06 21:54:33 +0000";
layers = (
{
layerId = m01;
shapes = (
{
closed = 1;
nodes = (
(541,402,ls),
(585,402,o),
(621,438,o),
(621,482,cs),
(621,527,o),
(585,563,o),
(541,563,cs),
(138,563,ls),
(93,563,o),
(57,527,o),
(57,482,cs),
(57,438,o),
(93,402,o),
(138,402,cs)
);
},
{
closed = 1;
nodes = (
(541,161,ls),
(585,161,o),
(621,197,o),
(621,241,cs),
(621,285,o),
(585,321,o),
(541,321,cs),
(138,321,ls),
(93,321,o),
(57,285,o),
(57,241,cs),
(57,197,o),
(93,161,o),
(138,161,cs)
);
}
);
width = 675;
}
);
note = equal;
unicode = 61;
},
{
glyphname = greater;
lastChange = "2024-06-06 21:54:33 +0000";
layers = (
{
layerId = m01;
shapes = (
{
closed = 1;
nodes = (
(161,81,o),
(182,88,o),
(198,104,cs),
(399,305,ls),
(415,321,o),
(423,340,o),
(423,363,cs),
(423,385,o),
(415,404,o),
(399,419,cs),
(198,620,ls),
(182,636,o),
(161,643,o),
(141,643,cs),
(120,643,o),
(100,636,o),
(84,620,cs),
(68,604,o),
(61,584,o),
(61,564,cs),
(61,543,o),
(68,522,o),
(84,506,cs),
(228,362,l),
(84,218,ls),
(68,202,o),
(61,181,o),
(61,161,cs),
(61,140,o),
(68,120,o),
(84,104,cs),
(100,88,o),
(120,81,o),
(141,81,cs)
);
}
);
width = 455;
}
);
note = greater;
unicode = 62;
},
{
glyphname = less;
lastChange = "2024-06-06 21:54:33 +0000";
layers = (
{
layerId = m01;
shapes = (
{
closed = 1;
nodes = (
(336,81,o),
(357,88,o),
(373,104,cs),
(389,120,o),
(396,141,o),
(396,162,cs),
(396,182,o),
(389,202,o),
(373,218,cs),
(228,362,l),
(373,506,ls),
(389,522,o),
(396,543,o),
(396,564,cs),
(396,584,o),
(389,604,o),
(373,620,cs),
(357,636,o),
(338,644,o),
(316,644,cs),
(293,644,o),
(274,636,o),
(259,620,cs),
(57,419,ls),
(41,403,o),
(34,383,o),
(34,363,cs),
(34,342,o),
(41,321,o),
(57,305,cs),
(259,104,ls),
(275,88,o),
(295,81,o),
(316,81,cs)
);
}
);
width = 455;
}
);
note = less;
unicode = 60;
},
{
glyphname = percent;
lastChange = "2024-06-06 21:54:33 +0000";
layers = (
{
layerId = m01;
shapes = (
{
closed = 1;
nodes = (
(183,0,o),
(219,36,o),
(219,80,cs),
(219,127,l),
(599,506,ls),
(614,521,o),
(622,540,o),
(622,563,cs),
(622,643,ls),
(622,688,o),
(586,724,o),
(542,724,cs),
(497,724,o),
(461,688,o),
(461,643,cs),
(461,596,l),
(82,217,ls),
(66,202,o),
(58,184,o),
(58,161,cs),
(58,80,ls),
(58,36,o),
(94,0,o),
(139,0,cs)
);
},
{
closed = 1;
nodes = (
(549,0,o),
(575,12,o),
(593,30,cs),
(611,48,o),
(622,72,o),
(622,100,cs),
(622,128,o),
(611,154,o),
(593,172,cs),
(575,190,o),
(549,201,o),
(521,201,cs),
(493,201,o),
(469,190,o),
(451,172,cs),
(433,154,o),
(421,128,o),
(421,100,cs),
(421,44,o),
(465,0,o),
(521,0,cs)
);
},
{
closed = 1;
nodes = (
(187,523,o),
(213,535,o),
(231,553,cs),
(249,571,o),
(260,595,o),
(260,623,cs),
(260,651,o),
(249,677,o),
(231,695,cs),
(213,713,o),
(187,724,o),
(159,724,cs),
(131,724,o),
(106,713,o),
(88,695,cs),
(70,677,o),
(58,651,o),
(58,623,cs),
(58,595,o),
(70,571,o),
(88,553,cs),
(106,535,o),
(131,523,o),
(159,523,cs)
);
}
);
width = 675;
}
);
note = percent;
unicode = 37;
},
{
glyphname = plus;
lastChange = "2024-06-06 21:54:33 +0000";
layers = (
{
layerId = m01;
shapes = (
{
closed = 1;
nodes = (
(359,80,o),
(395,116,o),
(395,161,cs),
(395,281,l),
(516,281,ls),
(560,281,o),
(597,317,o),
(597,362,cs),
(597,406,o),
(560,442,o),
(516,442,cs),
(395,442,l),
(395,563,ls),
(395,607,o),
(359,643,o),
(315,643,cs),
(270,643,o),
(234,607,o),
(234,563,cs),
(234,442,l),
(113,442,ls),
(69,442,o),
(33,406,o),
(33,362,cs),
(33,317,o),
(69,281,o),
(113,281,cs),
(234,281,l),
(234,161,ls),
(234,116,o),
(270,80,o),
(315,80,cs)
);
},
{
closed = 1;
nodes = (
(280,301,o),
(254,327,o),
(254,362,cs),
(254,395,o),
(280,422,o),
(315,422,cs),
(348,422,o),
(375,395,o),
(375,362,cs),
(375,327,o),
(348,301,o),
(315,301,cs)
);
}
);
width = 626;
}
);
note = plus;
unicode = 43;
},
{
glyphname = bar;
lastChange = "2024-06-06 21:54:33 +0000";
layers = (
{
layerId = m01;
shapes = (
{
closed = 1;
nodes = (
(188,0,o),
(224,36,o),
(224,80,cs),
(224,643,ls),
(224,688,o),
(188,724,o),
(144,724,cs),
(99,724,o),
(63,688,o),
(63,643,cs),
(63,80,ls),
(63,36,o),
(99,0,o),
(144,0,cs)
);
}
);
width = 285;
}
);
note = bar;
unicode = 124;
},
{
glyphname = at;
lastChange = "2024-06-06 21:54:33 +0000";
layers = (
{
layerId = m01;
shapes = (
{
closed = 1;
nodes = (
(546,-1,ls),
(591,-1,o),
(628,35,o),
(628,80,cs),
(628,125,o),
(591,161,o),
(546,161,cs),
(343,161,ls),
(287,161,o),
(235,184,o),
(199,221,cs),
(162,257,o),
(139,308,o),
(139,364,cs),
(139,420,o),
(162,472,o),
(199,509,cs),
(235,545,o),
(287,568,o),
(343,568,cs),
(399,568,o),
(450,545,o),
(487,509,cs),
(523,472,o),
(546,420,o),
(546,364,cs),
(546,341,o),
(529,324,o),
(506,324,cs),
(483,324,o),
(465,341,o),
(465,364,cs),
(465,399,o),
(452,429,o),
(430,451,cs),
(408,473,o),
(376,486,o),
(343,486,cs),
(310,486,o),
(279,473,o),
(256,451,cs),
(233,429,o),
(220,399,o),
(220,364,cs),
(220,331,o),
(233,301,o),
(256,279,cs),
(279,257,o),
(310,243,o),
(343,243,cs),
(628,243,l),
(628,446,ls),
(628,525,o),
(596,595,o),
(545,647,cs),
(493,698,o),
(422,730,o),
(343,730,cs),
(264,730,o),
(193,698,o),
(141,647,cs),
(89,595,o),
(57,525,o),
(57,446,cs),
(57,283,ls),
(57,204,o),
(89,134,o),
(141,83,cs),
(193,31,o),
(264,-1,o),
(343,-1,cs)
);
},
{
closed = 1;
nodes = (
(320,324,o),
(302,341,o),
(302,364,cs),
(302,387,o),
(320,405,o),
(343,405,cs),
(366,405,o),
(383,387,o),
(383,364,cs),
(383,324,l),
(343,324,ls)
);
}
);
width = 679;
}
);
note = at;
unicode = 64;
},
{
glyphname = ampersand;
lastChange = "2024-06-06 21:54:33 +0000";
layers = (
{
layerId = m01;
shapes = (
{
closed = 1;
nodes = (
(492,0,ls),
(525,0,o),
(556,14,o),
(578,36,cs),
(600,58,o),
(613,87,o),
(613,120,cs),
(613,153,o),
(600,184,o),
(578,206,cs),
(556,228,o),
(525,241,o),
(492,241,cs),
(291,241,ls),
(256,241,o),
(230,268,o),
(230,301,cs),
(230,336,o),
(256,362,o),
(291,362,cs),
(294,362,l),
(357,298,ls),
(365,291,o),
(375,287,o),
(386,287,cs),
(409,287,o),
(426,304,o),
(426,327,cs),
(426,338,o),
(422,348,o),
(414,355,cs),
(158,611,ls),
(150,619,o),
(141,623,o),
(130,623,cs),
(108,623,o),
(89,606,o),
(89,583,cs),
(89,572,o),
(93,562,o),
(101,554,cs),
(214,441,l),
(169,437,o),
(126,416,o),
(97,384,cs),
(68,352,o),
(49,309,o),
(49,261,cs),
(49,181,ls),
(49,132,o),
(69,86,o),
(102,53,cs),
(135,20,o),
(181,0,o),
(230,0,cs)
);
},
{
closed = 1;
nodes = (
(424,482,o),
(455,496,o),
(477,518,cs),
(499,540,o),
(512,570,o),
(512,603,cs),
(512,636,o),
(499,667,o),
(477,689,cs),
(455,711,o),
(424,724,o),
(391,724,cs),
(358,724,o),
(329,711,o),
(307,689,cs),
(285,667,o),
(271,636,o),
(271,603,cs),
(271,570,o),
(285,540,o),
(307,518,cs),
(329,496,o),
(358,482,o),
(391,482,cs)
);
}
);
width = 650;
}
);
note = ampersand;
unicode = 38;
},
{
glyphname = asciicircum;
lastChange = "2024-06-06 21:54:33 +0000";
layers = (
{
layerId = m01;
shapes = (
{
closed = 1;
nodes = (
(145,362,o),
(165,369,o),
(181,385,cs),
(326,529,l),
(470,385,ls),
(486,369,o),
(506,362,o),
(527,362,cs),
(547,362,o),
(568,369,o),
(584,385,cs),
(600,401,o),
(607,422,o),
(607,443,cs),
(607,463,o),
(600,483,o),
(584,499,cs),
(383,700,ls),
(367,716,o),
(346,723,o),
(326,723,cs),
(305,723,o),
(285,716,o),
(269,700,cs),
(67,499,ls),
(51,483,o),
(44,463,o),
(44,443,cs),
(44,422,o),
(51,401,o),
(67,385,cs),
(83,369,o),
(104,362,o),
(125,362,cs)
);
}
);
width = 650;
}
);
note = asciicircum;
unicode = 94;
},
{
glyphname = grave;
lastChange = "2024-06-06 21:54:33 +0000";
layers = (
{
layerId = m01;
shapes = (
{
closed = 1;
nodes = (
(379,262,o),
(405,289,o),
(405,322,cs),
(405,355,o),
(379,382,o),
(344,382,cs),
(163,382,l),
(163,417,o),
(136,443,o),
(103,443,cs),
(68,443,o),
(42,417,o),
(42,382,cs),
(42,349,o),
(68,322,o),
(103,322,cs),
(284,322,l),
(284,289,o),
(311,262,o),
(344,262,cs)
);
}
